<svg width="20" height="25" viewBox="0 0 20 25" fill="none" xmlns="http://www.w3.org/2000/svg">
<path d="M13.4707 5.07364C12.9481 5.63617 12.0074 5.63612 11.4847 5.07364C11.0413 4.65088 10.4326 5.28 10.8419 5.7374C11.703 6.66402 13.2525 6.66402 14.1136 5.7374C14.523 5.27953 13.9137 4.65102 13.4707 5.07364Z" fill="#ACC4FF"/>
<path d="M13.4707 5.07364C12.9481 5.63617 12.0074 5.63612 11.4847 5.07364C11.0413 4.65088 10.4326 5.28 10.8419 5.7374C11.703 6.66402 13.2525 6.66402 14.1136 5.7374C14.523 5.27953 13.9137 4.65102 13.4707 5.07364Z" fill="#525050"/>
<path d="M19.999 14.2476C19.999 12.867 19.3511 11.6134 18.2746 10.8493C19.5897 9.18972 19.1275 6.58337 17.3459 5.49896C17.7562 3.5092 15.9554 1.6661 14.0324 2.10444C13.4189 -0.944285 9.17846 -0.575778 9.09006 2.56165V9.56874C9.11406 10.1914 9.97536 10.191 9.99914 9.56874V2.56165C10.0737 0.457846 12.9585 0.370881 13.1595 2.45648C12.7517 2.70813 12.4145 3.06119 12.1742 3.49085C12.0487 3.71533 12.1232 4.00236 12.3406 4.13194C12.5542 4.26039 12.8353 4.18671 12.9615 3.96017C13.1581 3.6087 13.4506 3.33311 13.8077 3.16322C13.8125 3.16092 13.8173 3.15848 13.822 3.15604C15.3163 2.45591 16.9208 3.96115 16.39 5.56411C16.3879 5.56974 16.3858 5.57537 16.3838 5.58114C16.2344 6.02211 15.9363 6.39358 15.5445 6.62715C15.3271 6.75678 15.2526 7.04377 15.3781 7.26829C15.5043 7.49483 15.7854 7.56846 15.999 7.44011C16.4222 7.18785 16.7715 6.82694 17.0155 6.39677C18.2822 7.28565 18.5039 9.23773 17.4523 10.4C17.3155 10.3449 17.1758 10.2975 17.0343 10.2584C16.7918 10.1913 16.5426 10.3399 16.4777 10.5903C16.4127 10.8406 16.5566 11.098 16.7991 11.1651C16.9896 11.2178 17.1761 11.2898 17.3535 11.379C17.3599 11.3823 17.3663 11.3853 17.3727 11.3882C19.7407 12.5778 19.6175 16.1797 17.1787 17.1982C17.1716 17.2007 17.1646 17.2035 17.1575 17.2064C16.5397 17.4662 15.8432 17.5095 15.1991 17.3303C14.9565 17.2632 14.7074 17.4118 14.6424 17.6622C14.5774 17.9125 14.7213 18.1699 14.9638 18.237C15.6011 18.4142 16.2857 18.4241 16.9261 18.2656C16.9087 19.568 16.0034 20.6602 14.7588 20.8749C14.7547 20.8754 14.7507 20.876 14.7467 20.8767C14.3838 20.9382 14.0084 20.9188 13.6535 20.8206C13.4109 20.7535 13.1617 20.9021 13.0967 21.1525C13.0317 21.4028 13.1756 21.6602 13.4181 21.7273C13.6641 21.7953 13.9167 21.8355 14.1709 21.8471C13.0951 23.9427 10.0278 23.1922 9.99914 20.7995V13.7926C9.97514 13.1699 9.11383 13.1704 9.09006 13.7926V20.7993C9.16192 24.497 14.0893 25.2342 15.1911 21.7393C15.8871 21.5566 16.5174 21.1544 16.99 20.5861C17.5995 19.8554 17.9028 18.8861 17.8231 17.9242C19.1559 17.2216 19.999 15.8156 19.999 14.2476Z" fill="#ACC4FF"/>
<path d="M19.999 14.2476C19.999 12.867 19.3511 11.6134 18.2746 10.8493C19.5897 9.18972 19.1275 6.58337 17.3459 5.49896C17.7562 3.5092 15.9554 1.6661 14.0324 2.10444C13.4189 -0.944285 9.17846 -0.575778 9.09006 2.56165V9.56874C9.11406 10.1914 9.97536 10.191 9.99914 9.56874V2.56165C10.0737 0.457846 12.9585 0.370881 13.1595 2.45648C12.7517 2.70813 12.4145 3.06119 12.1742 3.49085C12.0487 3.71533 12.1232 4.00236 12.3406 4.13194C12.5542 4.26039 12.8353 4.18671 12.9615 3.96017C13.1581 3.6087 13.4506 3.33311 13.8077 3.16322C13.8125 3.16092 13.8173 3.15848 13.822 3.15604C15.3163 2.45591 16.9208 3.96115 16.39 5.56411C16.3879 5.56974 16.3858 5.57537 16.3838 5.58114C16.2344 6.02211 15.9363 6.39358 15.5445 6.62715C15.3271 6.75678 15.2526 7.04377 15.3781 7.26829C15.5043 7.49483 15.7854 7.56846 15.999 7.44011C16.4222 7.18785 16.7715 6.82694 17.0155 6.39677C18.2822 7.28565 18.5039 9.23773 17.4523 10.4C17.3155 10.3449 17.1758 10.2975 17.0343 10.2584C16.7918 10.1913 16.5426 10.3399 16.4777 10.5903C16.4127 10.8406 16.5566 11.098 16.7991 11.1651C16.9896 11.2178 17.1761 11.2898 17.3535 11.379C17.3599 11.3823 17.3663 11.3853 17.3727 11.3882C19.7407 12.5778 19.6175 16.1797 17.1787 17.1982C17.1716 17.2007 17.1646 17.2035 17.1575 17.2064C16.5397 17.4662 15.8432 17.5095 15.1991 17.3303C14.9565 17.2632 14.7074 17.4118 14.6424 17.6622C14.5774 17.9125 14.7213 18.1699 14.9638 18.237C15.6011 18.4142 16.2857 18.4241 16.9261 18.2656C16.9087 19.568 16.0034 20.6602 14.7588 20.8749C14.7547 20.8754 14.7507 20.876 14.7467 20.8767C14.3838 20.9382 14.0084 20.9188 13.6535 20.8206C13.4109 20.7535 13.1617 20.9021 13.0967 21.1525C13.0317 21.4028 13.1756 21.6602 13.4181 21.7273C13.6641 21.7953 13.9167 21.8355 14.1709 21.8471C13.0951 23.9427 10.0278 23.1922 9.99914 20.7995V13.7926C9.97514 13.1699 9.11383 13.1704 9.09006 13.7926V20.7993C9.16192 24.497 14.0893 25.2342 15.1911 21.7393C15.8871 21.5566 16.5174 21.1544 16.99 20.5861C17.5995 19.8554 17.9028 18.8861 17.8231 17.9242C19.1559 17.2216 19.999 15.8156 19.999 14.2476Z" fill="#525050"/>
<path d="M13.4864 16.1751C13.7289 16.108 13.8728 15.8507 13.8078 15.6003C13.7429 15.3499 13.4937 15.2013 13.2512 15.2684C12.7458 15.4082 12.3234 15.7428 12.0618 16.2106C11.8003 16.6784 11.7308 17.2234 11.8662 17.7452C11.9303 17.9976 12.1869 18.1444 12.4229 18.0771C12.6653 18.01 12.8092 17.7526 12.7443 17.5022C12.6717 17.2226 12.709 16.9306 12.8491 16.6799C12.9893 16.4293 13.2157 16.25 13.4864 16.1751Z" fill="#ACC4FF"/>
<path d="M13.4864 16.1751C13.7289 16.108 13.8728 15.8507 13.8078 15.6003C13.7429 15.3499 13.4937 15.2013 13.2512 15.2684C12.7458 15.4082 12.3234 15.7428 12.0618 16.2106C11.8003 16.6784 11.7308 17.2234 11.8662 17.7452C11.9303 17.9976 12.1869 18.1444 12.4229 18.0771C12.6653 18.01 12.8092 17.7526 12.7443 17.5022C12.6717 17.2226 12.709 16.9306 12.8491 16.6799C12.9893 16.4293 13.2157 16.25 13.4864 16.1751Z" fill="#525050"/>
<path d="M14.6604 8.99854C14.4829 8.81527 14.1951 8.81527 14.0176 8.99854C13.1201 9.88771 13.1201 11.4875 14.0176 12.3766C14.4603 12.7997 15.07 12.1696 14.6604 11.7129C14.1156 11.1732 14.1156 10.202 14.6604 9.6623C14.8379 9.47903 14.8379 9.18186 14.6604 8.99854Z" fill="#ACC4FF"/>
<path d="M14.6604 8.99854C14.4829 8.81527 14.1951 8.81527 14.0176 8.99854C13.1201 9.88771 13.1201 11.4875 14.0176 12.3766C14.4603 12.7997 15.07 12.1696 14.6604 11.7129C14.1156 11.1732 14.1156 10.202 14.6604 9.6623C14.8379 9.47903 14.8379 9.18186 14.6604 8.99854Z" fill="#525050"/>
<path d="M0.453711 11.5351C0.704754 11.5351 0.908252 11.3249 0.908252 11.0657V7.78052C0.884252 7.15783 0.0229429 7.1583 -0.000829556 7.78052V11.0657C-0.000829556 11.3249 0.202668 11.5351 0.453711 11.5351Z" fill="#ACC4FF"/>
<path d="M0.453711 11.5351C0.704754 11.5351 0.908252 11.3249 0.908252 11.0657V7.78052C0.884252 7.15783 0.0229429 7.1583 -0.000829556 7.78052V11.0657C-0.000829556 11.3249 0.202668 11.5351 0.453711 11.5351Z" fill="#525050"/>
<path d="M3.1809 7.31121C2.42899 7.31121 1.81727 7.94281 1.81727 8.71916V10.1271C1.89236 11.9954 4.47011 11.994 4.54452 10.1271V8.71916C4.54452 7.94281 3.9328 7.31121 3.1809 7.31121ZM3.63544 10.1271C3.61039 10.7498 2.75117 10.7494 2.72636 10.1271V8.71916C2.72636 8.46037 2.93026 8.24984 3.1809 8.24984C3.43153 8.24984 3.63548 8.46037 3.63548 8.71916L3.63544 10.1271Z" fill="#ACC4FF"/>
<path d="M3.1809 7.31121C2.42899 7.31121 1.81727 7.94281 1.81727 8.71916V10.1271C1.89236 11.9954 4.47011 11.994 4.54452 10.1271V8.71916C4.54452 7.94281 3.9328 7.31121 3.1809 7.31121ZM3.63544 10.1271C3.61039 10.7498 2.75117 10.7494 2.72636 10.1271V8.71916C2.72636 8.46037 2.93026 8.24984 3.1809 8.24984C3.43153 8.24984 3.63548 8.46037 3.63548 8.71916L3.63544 10.1271Z" fill="#525050"/>
<path d="M6.81731 7.31121C6.06541 7.31121 5.45369 7.94281 5.45369 8.71916V10.1271C5.52878 11.9954 8.10653 11.994 8.18094 10.1271V8.71916C8.18094 7.94281 7.56922 7.31121 6.81731 7.31121ZM7.27185 10.1271C7.24681 10.7498 6.38755 10.7494 6.36277 10.1271V8.71916C6.36277 8.46037 6.56668 8.24984 6.81731 8.24984C7.06795 8.24984 7.27185 8.46037 7.27185 8.71916V10.1271Z" fill="#ACC4FF"/>
<path d="M6.81731 7.31121C6.06541 7.31121 5.45369 7.94281 5.45369 8.71916V10.1271C5.52878 11.9954 8.10653 11.994 8.18094 10.1271V8.71916C8.18094 7.94281 7.56922 7.31121 6.81731 7.31121ZM7.27185 10.1271C7.24681 10.7498 6.38755 10.7494 6.36277 10.1271V8.71916C6.36277 8.46037 6.56668 8.24984 6.81731 8.24984C7.06795 8.24984 7.27185 8.46037 7.27185 8.71916V10.1271Z" fill="#525050"/>
<path d="M2.27173 6.37252C2.52277 6.37252 2.72627 6.16241 2.72627 5.90321V2.61799C2.70227 1.9953 1.84096 1.99577 1.81719 2.61799V5.90321C1.81719 6.16241 2.02069 6.37252 2.27173 6.37252Z" fill="#ACC4FF"/>
<path d="M2.27173 6.37252C2.52277 6.37252 2.72627 6.16241 2.72627 5.90321V2.61799C2.70227 1.9953 1.84096 1.99577 1.81719 2.61799V5.90321C1.81719 6.16241 2.02069 6.37252 2.27173 6.37252Z" fill="#525050"/>
<path d="M6.36268 4.96457V3.55662C6.28759 1.68837 3.70984 1.68978 3.63543 3.55662V4.96457C3.71057 6.83283 6.28827 6.83142 6.36268 4.96457ZM5.4536 4.96457C5.42855 5.58731 4.56929 5.58689 4.54451 4.96457V3.55662C4.54451 3.29784 4.74842 3.08731 4.99905 3.08731C5.24969 3.08731 5.4536 3.29784 5.4536 3.55662V4.96457Z" fill="#ACC4FF"/>
<path d="M6.36268 4.96457V3.55662C6.28759 1.68837 3.70984 1.68978 3.63543 3.55662V4.96457C3.71057 6.83283 6.28827 6.83142 6.36268 4.96457ZM5.4536 4.96457C5.42855 5.58731 4.56929 5.58689 4.54451 4.96457V3.55662C4.54451 3.29784 4.74842 3.08731 4.99905 3.08731C5.24969 3.08731 5.4536 3.29784 5.4536 3.55662V4.96457Z" fill="#525050"/>
<path d="M7.72635 6.37252C7.9774 6.37252 8.18089 6.16241 8.18089 5.90321V2.61799C8.15689 1.9953 7.29559 1.99577 7.27181 2.61799V5.90321C7.27181 6.16241 7.47531 6.37252 7.72635 6.37252Z" fill="#ACC4FF"/>
<path d="M7.72635 6.37252C7.9774 6.37252 8.18089 6.16241 8.18089 5.90321V2.61799C8.15689 1.9953 7.29559 1.99577 7.27181 2.61799V5.90321C7.27181 6.16241 7.47531 6.37252 7.72635 6.37252Z" fill="#525050"/>
<path d="M4.08997 12.4737C3.83893 12.4737 3.63543 12.6838 3.63543 12.9431V16.2283C3.65943 16.851 4.52074 16.8505 4.54452 16.2283V12.9431C4.54452 12.6838 4.34102 12.4737 4.08997 12.4737Z" fill="#ACC4FF"/>
<path d="M4.08997 12.4737C3.83893 12.4737 3.63543 12.6838 3.63543 12.9431V16.2283C3.65943 16.851 4.52074 16.8505 4.54452 16.2283V12.9431C4.54452 12.6838 4.34102 12.4737 4.08997 12.4737Z" fill="#525050"/>
<path d="M2.72627 15.2896V13.8817C2.65118 12.0134 0.0734317 12.0148 -0.000976562 13.8817V15.2896C0.074159 17.1579 2.65186 17.1565 2.72627 15.2896ZM1.81719 15.2896C1.79214 15.9124 0.932923 15.9119 0.908105 15.2896V13.8817C0.908105 13.6229 1.11201 13.4124 1.36265 13.4124C1.61328 13.4124 1.81719 13.6229 1.81719 13.8817V15.2896Z" fill="#ACC4FF"/>
<path d="M2.72627 15.2896V13.8817C2.65118 12.0134 0.0734317 12.0148 -0.000976562 13.8817V15.2896C0.074159 17.1579 2.65186 17.1565 2.72627 15.2896ZM1.81719 15.2896C1.79214 15.9124 0.932923 15.9119 0.908105 15.2896V13.8817C0.908105 13.6229 1.11201 13.4124 1.36265 13.4124C1.61328 13.4124 1.81719 13.6229 1.81719 13.8817V15.2896Z" fill="#525050"/>
<path d="M6.81731 12.4737C6.06541 12.4737 5.45369 13.1053 5.45369 13.8817V15.2896C5.52883 17.1579 8.10653 17.1565 8.18094 15.2896V13.8817C8.18094 13.1053 7.56922 12.4737 6.81731 12.4737ZM7.27185 15.2896C7.24681 15.9124 6.38755 15.9119 6.36277 15.2896V13.8817C6.36277 13.6229 6.56668 13.4124 6.81731 13.4124C7.06795 13.4124 7.27185 13.6229 7.27185 13.8817V15.2896Z" fill="#ACC4FF"/>
<path d="M6.81731 12.4737C6.06541 12.4737 5.45369 13.1053 5.45369 13.8817V15.2896C5.52883 17.1579 8.10653 17.1565 8.18094 15.2896V13.8817C8.18094 13.1053 7.56922 12.4737 6.81731 12.4737ZM7.27185 15.2896C7.24681 15.9124 6.38755 15.9119 6.36277 15.2896V13.8817C6.36277 13.6229 6.56668 13.4124 6.81731 13.4124C7.06795 13.4124 7.27185 13.6229 7.27185 13.8817V15.2896Z" fill="#525050"/>
<path d="M5.9081 17.6361C5.65706 17.6361 5.45356 17.8462 5.45356 18.1054V21.3907C5.47756 22.0133 6.33887 22.0129 6.36264 21.3907V18.1054C6.36264 17.8462 6.15914 17.6361 5.9081 17.6361Z" fill="#ACC4FF"/>
<path d="M5.9081 17.6361C5.65706 17.6361 5.45356 17.8462 5.45356 18.1054V21.3907C5.47756 22.0133 6.33887 22.0129 6.36264 21.3907V18.1054C6.36264 17.8462 6.15914 17.6361 5.9081 17.6361Z" fill="#525050"/>
<path d="M3.18081 17.6361C2.42891 17.6361 1.81719 18.2677 1.81719 19.0441V20.452C1.89232 22.3203 4.46998 22.3189 4.54443 20.452V19.0441C4.54443 18.2677 3.93271 17.6361 3.18081 17.6361ZM3.63535 20.452C3.61031 21.0748 2.75109 21.0743 2.72627 20.452V19.0441C2.75131 18.4214 3.61053 18.4218 3.63535 19.0441V20.452Z" fill="#ACC4FF"/>
<path d="M3.18081 17.6361C2.42891 17.6361 1.81719 18.2677 1.81719 19.0441V20.452C1.89232 22.3203 4.46998 22.3189 4.54443 20.452V19.0441C4.54443 18.2677 3.93271 17.6361 3.18081 17.6361ZM3.63535 20.452C3.61031 21.0748 2.75109 21.0743 2.72627 20.452V19.0441C2.75131 18.4214 3.61053 18.4218 3.63535 19.0441V20.452Z" fill="#525050"/>
<path d="M7.72635 17.6361C7.47531 17.6361 7.27181 17.8462 7.27181 18.1054V21.3907C7.29581 22.0133 8.15712 22.0129 8.18089 21.3907V18.1054C8.18089 17.8462 7.9774 17.6361 7.72635 17.6361Z" fill="#ACC4FF"/>
<path d="M7.72635 17.6361C7.47531 17.6361 7.27181 17.8462 7.27181 18.1054V21.3907C7.29581 22.0133 8.15712 22.0129 8.18089 21.3907V18.1054C8.18089 17.8462 7.9774 17.6361 7.72635 17.6361Z" fill="#525050"/>
<path d="M9.54461 12.1501C9.79565 12.1501 9.99915 11.94 9.99915 11.6808C9.99915 11.4216 9.79565 11.2114 9.54461 11.2114C8.94175 11.2361 8.94179 12.1256 9.54461 12.1501Z" fill="#ACC4FF"/>
<path d="M9.54461 12.1501C9.79565 12.1501 9.99915 11.94 9.99915 11.6808C9.99915 11.4216 9.79565 11.2114 9.54461 11.2114C8.94175 11.2361 8.94179 12.1256 9.54461 12.1501Z" fill="#525050"/>
</svg>
