<svg width="24" height="25" viewBox="0 0 24 25" fill="none" xmlns="http://www.w3.org/2000/svg">
<path d="M11.9975 0.00289917C5.37202 0.00289917 -0.000976562 5.51157 -0.000976562 12.307C-0.000976562 17.7422 3.43702 22.3532 8.20702 23.9816C8.80702 24.0949 9.02602 23.715 9.02602 23.3887C9.02602 23.0961 9.01552 22.3225 9.00952 21.2962C5.67202 22.0391 4.96702 19.6463 4.96702 19.6463C4.42252 18.2247 3.63502 17.8463 3.63502 17.8463C2.54452 17.0835 3.71602 17.0988 3.71602 17.0988C4.92052 17.1861 5.55352 18.3672 5.55352 18.3672C6.62452 20.2468 8.36302 19.7045 9.04702 19.389C9.15502 18.5939 9.46552 18.0516 9.80902 17.7437C7.14502 17.4327 4.34302 16.3773 4.34302 11.6636C4.34302 10.3202 4.81102 9.22181 5.57902 8.36089C5.45452 8.04991 5.04352 6.79836 5.69602 5.10562C5.69602 5.10562 6.70402 4.77473 8.99602 6.36637C9.95302 6.09369 10.979 5.95735 12.0005 5.95276C13.019 5.95888 14.0465 6.09369 15.005 6.3679C17.2955 4.77627 18.302 5.10715 18.302 5.10715C18.956 6.80142 18.545 8.05145 18.422 8.36242C19.1915 9.22334 19.655 10.3217 19.655 11.6652C19.655 16.3911 16.85 17.4312 14.177 17.736C14.6075 18.116 14.9915 18.8666 14.9915 20.014C14.9915 21.6592 14.9765 22.9858 14.9765 23.3887C14.9765 23.7181 15.1925 24.101 15.8015 23.98C20.564 22.3501 23.999 17.7406 23.999 12.307C23.999 5.51157 18.626 0.00289917 11.9975 0.00289917Z" fill="#ACC4FF"/>
<path d="M11.9975 0.00289917C5.37202 0.00289917 -0.000976562 5.51157 -0.000976562 12.307C-0.000976562 17.7422 3.43702 22.3532 8.20702 23.9816C8.80702 24.0949 9.02602 23.715 9.02602 23.3887C9.02602 23.0961 9.01552 22.3225 9.00952 21.2962C5.67202 22.0391 4.96702 19.6463 4.96702 19.6463C4.42252 18.2247 3.63502 17.8463 3.63502 17.8463C2.54452 17.0835 3.71602 17.0988 3.71602 17.0988C4.92052 17.1861 5.55352 18.3672 5.55352 18.3672C6.62452 20.2468 8.36302 19.7045 9.04702 19.389C9.15502 18.5939 9.46552 18.0516 9.80902 17.7437C7.14502 17.4327 4.34302 16.3773 4.34302 11.6636C4.34302 10.3202 4.81102 9.22181 5.57902 8.36089C5.45452 8.04991 5.04352 6.79836 5.69602 5.10562C5.69602 5.10562 6.70402 4.77473 8.99602 6.36637C9.95302 6.09369 10.979 5.95735 12.0005 5.95276C13.019 5.95888 14.0465 6.09369 15.005 6.3679C17.2955 4.77627 18.302 5.10715 18.302 5.10715C18.956 6.80142 18.545 8.05145 18.422 8.36242C19.1915 9.22334 19.655 10.3217 19.655 11.6652C19.655 16.3911 16.85 17.4312 14.177 17.736C14.6075 18.116 14.9915 18.8666 14.9915 20.014C14.9915 21.6592 14.9765 22.9858 14.9765 23.3887C14.9765 23.7181 15.1925 24.101 15.8015 23.98C20.564 22.3501 23.999 17.7406 23.999 12.307C23.999 5.51157 18.626 0.00289917 11.9975 0.00289917Z" fill="#525050"/>
</svg>
