<svg width="24" height="25" viewBox="0 0 24 25" fill="none" xmlns="http://www.w3.org/2000/svg">
<path d="M21.828 0.00292969H2.17002C0.971023 0.00292969 -0.000976562 0.97493 -0.000976562 2.17392V21.8319C-0.000976562 23.0309 0.971023 24.0029 2.17002 24.0029H21.828C23.027 24.0029 23.999 23.0309 23.999 21.8319V2.17392C23.999 0.97493 23.027 0.00292969 21.828 0.00292969ZM7.42564 20.7261C7.42564 21.0751 7.14279 21.3579 6.79385 21.3579H4.10447C3.75553 21.3579 3.47268 21.0751 3.47268 20.7261V9.45233C3.47268 9.10339 3.75553 8.82054 4.10447 8.82054H6.79385C7.14279 8.82054 7.42564 9.10339 7.42564 9.45233V20.7261ZM5.44916 7.75782C4.03812 7.75782 2.89423 6.61392 2.89423 5.20289C2.89423 3.79185 4.03812 2.64796 5.44916 2.64796C6.8602 2.64796 8.00409 3.79185 8.00409 5.20289C8.00409 6.61392 6.86026 7.75782 5.44916 7.75782ZM21.4803 20.777C21.4803 21.0978 21.2202 21.3579 20.8994 21.3579H18.0135C17.6927 21.3579 17.4326 21.0978 17.4326 20.777V15.489C17.4326 14.7001 17.664 12.0321 15.371 12.0321C13.5924 12.0321 13.2317 13.8583 13.1593 14.6778V20.777C13.1593 21.0978 12.8992 21.3579 12.5784 21.3579H9.78719C9.4664 21.3579 9.20629 21.0978 9.20629 20.777V9.40144C9.20629 9.08065 9.4664 8.82054 9.78719 8.82054H12.5784C12.8991 8.82054 13.1593 9.08065 13.1593 9.40144V10.385C13.8188 9.39529 14.7989 8.63137 16.8857 8.63137C21.5067 8.63137 21.4803 12.9486 21.4803 15.3207V20.777Z" fill="#ACC4FF"/>
<path d="M21.828 0.00292969H2.17002C0.971023 0.00292969 -0.000976562 0.97493 -0.000976562 2.17392V21.8319C-0.000976562 23.0309 0.971023 24.0029 2.17002 24.0029H21.828C23.027 24.0029 23.999 23.0309 23.999 21.8319V2.17392C23.999 0.97493 23.027 0.00292969 21.828 0.00292969ZM7.42564 20.7261C7.42564 21.0751 7.14279 21.3579 6.79385 21.3579H4.10447C3.75553 21.3579 3.47268 21.0751 3.47268 20.7261V9.45233C3.47268 9.10339 3.75553 8.82054 4.10447 8.82054H6.79385C7.14279 8.82054 7.42564 9.10339 7.42564 9.45233V20.7261ZM5.44916 7.75782C4.03812 7.75782 2.89423 6.61392 2.89423 5.20289C2.89423 3.79185 4.03812 2.64796 5.44916 2.64796C6.8602 2.64796 8.00409 3.79185 8.00409 5.20289C8.00409 6.61392 6.86026 7.75782 5.44916 7.75782ZM21.4803 20.777C21.4803 21.0978 21.2202 21.3579 20.8994 21.3579H18.0135C17.6927 21.3579 17.4326 21.0978 17.4326 20.777V15.489C17.4326 14.7001 17.664 12.0321 15.371 12.0321C13.5924 12.0321 13.2317 13.8583 13.1593 14.6778V20.777C13.1593 21.0978 12.8992 21.3579 12.5784 21.3579H9.78719C9.4664 21.3579 9.20629 21.0978 9.20629 20.777V9.40144C9.20629 9.08065 9.4664 8.82054 9.78719 8.82054H12.5784C12.8991 8.82054 13.1593 9.08065 13.1593 9.40144V10.385C13.8188 9.39529 14.7989 8.63137 16.8857 8.63137C21.5067 8.63137 21.4803 12.9486 21.4803 15.3207V20.777Z" fill="#525050"/>
</svg>
