<svg width="182" height="171" viewBox="0 0 182 171" fill="none" xmlns="http://www.w3.org/2000/svg">
<path d="M75.8117 72.6596C73.3161 60.8081 70.4752 48.8612 67.2892 36.8192C64.3032 24.8927 61.6173 13.1395 59.2317 1.55965L90.7479 19.7555C91.3459 24.2651 92.0242 28.4046 92.7828 32.174C93.7415 36.0589 94.6452 39.808 95.4939 43.4213C96.5428 47.15 97.4465 50.8991 98.2051 54.6685C99.2539 58.3973 100.222 62.4962 101.111 66.9651C109.449 64.0754 117.082 61.7151 124.009 59.8842C131.026 57.8972 138.848 55.4385 147.477 52.5082L175.992 68.9711C169.865 71.2641 164.019 73.3025 158.454 75.0864C152.978 76.7141 147.458 78.4199 141.892 80.2037C136.417 81.8314 130.751 83.5576 124.895 85.382C119.33 87.1659 113.294 89.3027 106.787 91.7925C108.225 97.6199 109.683 103.875 111.16 110.558C112.838 117.357 114.471 124.234 116.058 131.188C117.736 137.987 119.314 144.728 120.791 151.411C122.269 158.094 123.626 164.292 124.864 170.003L92.1476 151.114C90.0609 141.789 87.8038 132.99 85.3763 124.718C82.9488 116.445 80.6466 107.724 78.4698 98.5555C69.8411 101.486 61.5378 104.084 53.5599 106.349C45.5821 108.614 37.2337 111.289 28.5148 114.376L0.000144958 97.9131C12.7432 93.402 25.451 89.1829 38.1236 85.2559C50.8864 81.1727 63.4491 76.9739 75.8117 72.6596Z" fill="url(#paint0_linear)"/>
<defs>
<linearGradient id="paint0_linear" x1="118.962" y1="36.0452" x2="62.4323" y2="133.958" gradientUnits="userSpaceOnUse">
<stop stop-color="#C285F9"/>
<stop offset="1" stop-color="#C285F9" stop-opacity="0"/>
</linearGradient>
</defs>
</svg>
