<svg width="63" height="59" viewBox="0 0 63 59" fill="none" xmlns="http://www.w3.org/2000/svg">
<path d="M26.2854 25.1926C25.4201 21.0834 24.4351 16.9412 23.3304 12.766C22.2951 8.63081 21.3639 4.55574 20.5367 0.540761L31.464 6.84964C31.6714 8.4132 31.9066 9.84845 32.1696 11.1554C32.502 12.5024 32.8153 13.8022 33.1096 15.055C33.4732 16.3479 33.7866 17.6478 34.0496 18.9547C34.4132 20.2475 34.7491 21.6687 35.0571 23.2182C37.9482 22.2162 40.5946 21.3979 42.9962 20.7631C45.4291 20.0741 48.1414 19.2216 51.1332 18.2056L61.0198 23.9137C58.8957 24.7087 56.8688 25.4155 54.9391 26.034C53.0406 26.5983 51.1265 27.1897 49.1968 27.8082C47.2984 28.3726 45.334 28.9711 43.3037 29.6037C41.374 30.2222 39.2811 30.9631 37.0251 31.8263C37.5237 33.8468 38.0291 36.0156 38.5415 38.3328C39.1231 40.69 39.6892 43.0743 40.2396 45.4857C40.8213 47.8429 41.3683 50.1801 41.8806 52.4972C42.3929 54.8144 42.8637 56.9632 43.2929 58.9436L31.9493 52.3944C31.2258 49.1612 30.4433 46.1104 29.6016 43.2422C28.7599 40.3739 27.9617 37.3502 27.207 34.1712C24.2152 35.1872 21.3363 36.0878 18.5702 36.8732C15.8041 37.6585 12.9096 38.5863 9.88657 39.6565L-3.43323e-05 33.9484C4.41822 32.3843 8.82429 30.9215 13.2181 29.5599C17.6433 28.1442 21.999 26.6884 26.2854 25.1926Z" fill="url(#paint0_linear)"/>
<defs>
<linearGradient id="paint0_linear" x1="41.2466" y1="12.4976" x2="21.6464" y2="46.446" gradientUnits="userSpaceOnUse">
<stop stop-color="#3072D3"/>
<stop offset="1" stop-color="#3072D3" stop-opacity="0"/>
</linearGradient>
</defs>
</svg>
