<svg width="577" height="303" viewBox="0 0 577 303" fill="none" xmlns="http://www.w3.org/2000/svg">
<path opacity="0.1" d="M288.5 264.647C129.166 264.647 0 262.555 0 259.976C0 257.396 129.166 255.305 288.5 255.305C447.834 255.305 577 257.396 577 259.976C577 262.555 447.834 264.647 288.5 264.647Z" fill="#8E3BDC"/>
<path opacity="0.1" d="M288.5 303C129.166 303 0 300.909 0 298.329C0 295.749 129.166 293.658 288.5 293.658C447.834 293.658 577 295.749 577 298.329C577 300.909 447.834 303 288.5 303Z" fill="#8E3BDC"/>
<path opacity="0.1" d="M288.5 184.603C129.166 184.603 0 182.511 0 179.932C0 177.352 129.166 175.261 288.5 175.261C447.834 175.261 577 177.352 577 179.932C577 182.511 447.834 184.603 288.5 184.603Z" fill="#8E3BDC"/>
<path opacity="0.1" d="M288.5 224.622C129.166 224.622 0 222.531 0 219.951C0 217.371 129.166 215.28 288.5 215.28C447.834 215.28 577 217.371 577 219.951C577 222.531 447.834 224.622 288.5 224.622Z" fill="#8E3BDC"/>
<path opacity="0.1" d="M153.099 121.747C154.978 121.391 156.921 121.604 158.679 122.358C159.735 122.829 160.877 123.072 162.033 123.072C163.188 123.072 164.331 122.829 165.386 122.358C166.635 121.809 167.988 121.539 169.351 121.565C170.715 121.591 172.056 121.914 173.283 122.511C173.982 122.883 174.761 123.078 175.552 123.08C178.753 123.08 181.412 119.854 181.964 115.599C181.334 115.129 180.799 114.544 180.385 113.876C178.511 110.849 175.61 108.904 172.346 108.904C169.082 108.904 166.218 110.823 164.344 113.818C163.786 114.722 163.003 115.467 162.072 115.979C161.141 116.49 160.094 116.752 159.032 116.738H158.948C156.373 116.712 154.167 118.757 153.099 121.747Z" fill="#8E3BDC"/>
<path opacity="0.1" d="M143.354 108.382L148.523 111.661L145.365 105.946C146.254 105.237 147.355 104.846 148.492 104.834H148.576C148.929 104.839 149.281 104.812 149.629 104.755L151.408 105.867L150.656 104.497C151.899 104.066 152.974 103.25 153.725 102.167L156.884 104.159L154.904 100.553C156.736 98.3496 159.21 97 161.927 97C165.191 97 168.092 98.9401 169.971 101.966C170.525 102.871 171.309 103.613 172.242 104.117C173.175 104.62 174.224 104.868 175.283 104.834H175.457C179.058 104.834 181.975 108.92 181.975 113.96C181.975 119 179.058 123.091 175.457 123.091C174.666 123.086 173.888 122.89 173.188 122.522C171.962 121.923 170.621 121.599 169.257 121.572C167.893 121.544 166.54 121.815 165.291 122.363C164.237 122.838 163.094 123.083 161.938 123.083C160.782 123.083 159.639 122.838 158.584 122.363C157.345 121.827 156.005 121.563 154.656 121.589C153.306 121.616 151.978 121.932 150.761 122.516C150.069 122.879 149.3 123.071 148.518 123.075C144.917 123.075 142.001 118.984 142.001 113.944C141.979 112.006 142.444 110.093 143.354 108.382V108.382Z" fill="#8E3BDC"/>
<path opacity="0.1" d="M371.017 159.318C372.335 159.069 373.696 159.218 374.929 159.745C375.667 160.075 376.466 160.246 377.274 160.246C378.083 160.246 378.882 160.075 379.62 159.745C380.493 159.361 381.44 159.172 382.393 159.191C383.347 159.21 384.285 159.437 385.142 159.856C385.63 160.111 386.171 160.246 386.722 160.251C388.959 160.251 390.823 157.995 391.212 155.016C390.766 154.689 390.385 154.279 390.091 153.809C388.78 151.7 386.748 150.33 384.463 150.33C382.178 150.33 380.173 151.674 378.862 153.767C378.47 154.4 377.922 154.922 377.269 155.28C376.617 155.639 375.884 155.822 375.14 155.812H375.082C373.313 155.802 371.77 157.236 371.017 159.318Z" fill="#8E3BDC"/>
<path opacity="0.1" d="M364.199 149.971L367.816 152.27L365.621 148.268C366.242 147.771 367.011 147.496 367.806 147.488H367.869C368.119 147.493 368.37 147.473 368.616 147.43L369.843 148.21L369.317 147.251C370.186 146.948 370.938 146.378 371.465 145.622L373.66 147.014L372.27 144.494C372.854 143.739 373.598 143.124 374.448 142.692C375.299 142.261 376.234 142.025 377.187 142C379.472 142 381.504 143.36 382.815 145.479C383.204 146.113 383.753 146.633 384.406 146.985C385.06 147.338 385.795 147.512 386.537 147.488H386.658C389.18 147.488 391.223 150.345 391.223 153.878C391.223 157.41 389.18 160.267 386.658 160.267C386.107 160.263 385.565 160.126 385.079 159.867C384.222 159.45 383.284 159.225 382.332 159.207C381.379 159.189 380.434 159.378 379.562 159.761C378.819 160.1 378.014 160.28 377.198 160.288C376.394 160.287 375.6 160.118 374.866 159.793C373.999 159.417 373.061 159.232 372.117 159.25C371.172 159.268 370.242 159.489 369.39 159.898C368.903 160.154 368.361 160.288 367.811 160.288C365.295 160.288 363.252 157.426 363.252 153.899C363.231 152.53 363.557 151.179 364.199 149.971V149.971Z" fill="#8E3BDC"/>
<path opacity="0.1" d="M435.072 127.297C433.756 127.048 432.396 127.197 431.165 127.724C430.427 128.055 429.627 128.225 428.817 128.225C428.008 128.225 427.208 128.055 426.469 127.724C425.596 127.341 424.65 127.152 423.697 127.17C422.743 127.188 421.805 127.413 420.947 127.83C420.461 128.089 419.919 128.227 419.367 128.23C417.13 128.23 415.266 125.969 414.882 122.99C415.328 122.663 415.707 122.253 415.998 121.783C417.314 119.674 419.346 118.309 421.626 118.309C423.906 118.309 425.917 119.648 427.233 121.746C427.624 122.379 428.171 122.9 428.823 123.258C429.474 123.616 430.207 123.8 430.95 123.791H431.008C432.782 123.802 434.329 125.231 435.072 127.297Z" fill="#8E3BDC"/>
<path opacity="0.1" d="M441.894 117.966L438.272 120.264L440.473 116.268C439.851 115.769 439.08 115.493 438.283 115.483H438.225C437.973 115.486 437.721 115.469 437.472 115.43L436.246 116.205L436.772 115.251C435.904 114.947 435.154 114.377 434.629 113.622L432.434 115.014L433.803 112.488C433.219 111.734 432.475 111.12 431.624 110.689C430.774 110.259 429.838 110.024 428.886 110C426.606 110 424.569 111.36 423.258 113.479C422.87 114.112 422.322 114.631 421.669 114.984C421.016 115.337 420.282 115.511 419.541 115.488H419.415C416.898 115.488 414.856 118.351 414.856 121.878C414.856 125.405 416.898 128.267 419.415 128.267C419.965 128.265 420.507 128.129 420.994 127.872C421.851 127.453 422.789 127.226 423.743 127.207C424.697 127.188 425.643 127.377 426.517 127.761C427.256 128.103 428.06 128.283 428.875 128.288C429.68 128.288 430.476 128.119 431.213 127.793C432.079 127.417 433.015 127.232 433.959 127.25C434.903 127.269 435.831 127.49 436.683 127.898C437.17 128.154 437.712 128.288 438.262 128.288C440.784 128.288 442.826 125.431 442.826 121.899C442.851 120.53 442.53 119.178 441.894 117.966V117.966Z" fill="#8E3BDC"/>
<path d="M227.267 258.463C225.893 255.911 227.451 252.79 229.241 250.518C231.031 248.246 233.221 245.879 233.174 242.984C233.106 238.825 228.694 236.363 225.172 234.159C222.556 232.517 220.144 230.57 217.986 228.36C217.083 227.509 216.336 226.506 215.78 225.397C215.048 223.773 215.069 221.917 215.117 220.125C215.267 214.189 215.561 208.256 215.996 202.327" stroke="#3F3D56" stroke-width="4" stroke-miterlimit="10"/>
<path d="M209.294 202.032C209.345 200.944 209.668 199.887 210.234 198.958C210.8 198.028 211.59 197.256 212.532 196.712L213.985 199.586L213.937 196.106C215.255 195.717 216.662 195.758 217.955 196.223C219.248 196.687 220.361 197.551 221.132 198.689C221.903 199.828 222.292 201.182 222.245 202.557C222.197 203.932 221.714 205.256 220.866 206.338C220.018 207.42 218.849 208.204 217.527 208.578C216.204 208.951 214.798 208.894 213.51 208.415C212.223 207.936 211.12 207.059 210.363 205.912C209.605 204.765 209.23 203.406 209.294 202.032V202.032Z" fill="#8E3BDC"/>
<path d="M220.855 245.958C221.507 247.226 222.558 248.245 223.847 248.855C225.135 249.465 226.588 249.633 227.981 249.333C229.374 249.033 230.629 248.281 231.553 247.195C232.477 246.108 233.017 244.747 233.09 243.322C233.138 242.423 232.995 241.524 232.669 240.686C232.191 239.462 231.355 238.413 230.27 237.675C229.185 236.938 227.902 236.547 226.591 236.555C225.28 236.562 224.001 236.967 222.925 237.717C221.848 238.467 221.024 239.526 220.56 240.754L224.609 244.054L220.155 243C220.15 244.028 220.39 245.042 220.855 245.958V245.958Z" fill="#8E3BDC"/>
<path d="M224.056 233.357C225.647 233.432 227.209 232.919 228.445 231.914C229.681 230.909 230.505 229.484 230.759 227.909C231.013 226.335 230.679 224.723 229.821 223.379C228.964 222.036 227.642 221.056 226.109 220.626L226.146 223.299L224.677 220.388C222.96 220.308 221.281 220.914 220.01 222.073C218.739 223.233 217.979 224.85 217.899 226.57C217.819 228.29 218.424 229.971 219.582 231.244C220.739 232.517 222.355 233.277 224.072 233.357H224.056Z" fill="#8E3BDC"/>
<path d="M208.32 222.872C209.325 222.924 210.328 222.741 211.25 222.337C212.172 221.934 212.987 221.321 213.632 220.547C214.276 219.773 214.732 218.86 214.962 217.879C215.193 216.898 215.193 215.877 214.961 214.897C214.73 213.916 214.273 213.003 213.628 212.23C212.983 211.457 212.167 210.844 211.245 210.442C210.323 210.039 209.319 209.857 208.315 209.91C207.31 209.962 206.331 210.249 205.456 210.746L206.599 213.909L204.266 211.6C203.323 212.466 202.657 213.592 202.352 214.837C202.047 216.082 202.117 217.389 202.553 218.594C202.988 219.799 203.771 220.847 204.801 221.608C205.831 222.368 207.063 222.806 208.341 222.866L208.32 222.872Z" fill="#8E3BDC"/>
<path opacity="0.1" d="M210.168 203.761C211.663 203.924 213.116 204.388 214.622 204.483C216.128 204.578 217.781 204.214 218.718 203.049C219.159 202.37 219.559 201.666 219.918 200.94C220.327 200.301 220.888 199.772 221.55 199.401C221.97 200.223 222.209 201.126 222.252 202.048C222.295 202.971 222.141 203.892 221.8 204.75C221.459 205.608 220.939 206.383 220.275 207.024C219.611 207.665 218.819 208.157 217.95 208.466C217.081 208.776 216.156 208.896 215.237 208.819C214.318 208.742 213.426 208.469 212.621 208.019C211.816 207.569 211.115 206.952 210.567 206.21C210.019 205.467 209.635 204.616 209.442 203.713C209.679 203.719 209.926 203.734 210.168 203.761Z" fill="black"/>
<path opacity="0.1" d="M208.32 222.872C209.438 222.925 210.55 222.687 211.548 222.182C212.547 221.677 213.398 220.922 214.018 219.99C214.639 219.058 215.008 217.981 215.09 216.863C215.172 215.746 214.963 214.627 214.485 213.614C213.971 213.962 213.53 214.406 213.185 214.921C212.797 215.66 212.369 216.377 211.9 217.067C210.889 218.253 209.163 218.649 207.599 218.57C206.035 218.491 204.524 218.042 202.966 217.911C202.75 217.911 202.534 217.879 202.313 217.874C202.636 219.248 203.397 220.479 204.481 221.38C205.564 222.282 206.912 222.806 208.32 222.872V222.872Z" fill="black"/>
<path opacity="0.1" d="M224.056 233.357C225.162 233.409 226.263 233.177 227.254 232.682C228.244 232.187 229.092 231.446 229.715 230.529C230.338 229.613 230.717 228.553 230.815 227.448C230.913 226.344 230.726 225.233 230.274 224.221C229.74 224.573 229.274 225.02 228.9 225.539C228.475 226.296 228.006 227.027 227.494 227.727C226.404 228.945 224.562 229.377 222.909 229.309C221.256 229.24 219.75 228.882 218.17 228.781C218.564 230.057 219.339 231.181 220.392 231.999C221.445 232.818 222.725 233.292 224.056 233.357Z" fill="black"/>
<path opacity="0.1" d="M220.855 245.958C221.507 247.226 222.558 248.245 223.846 248.855C225.135 249.465 226.588 249.633 227.981 249.333C229.374 249.033 230.629 248.281 231.553 247.195C232.477 246.108 233.017 244.747 233.09 243.322C233.138 242.423 232.995 241.524 232.669 240.686C232.135 241.036 231.656 241.465 231.247 241.956C230.631 242.705 230.226 243.538 229.51 244.26C228.189 245.562 226.046 246.1 224.145 246.147C223.046 246.151 221.947 246.087 220.855 245.958V245.958Z" fill="black"/>
<path d="M548.408 220.505C547.034 217.953 548.592 214.832 550.382 212.56C552.172 210.288 554.362 207.91 554.315 205.026C554.246 200.867 549.834 198.405 546.312 196.201C543.697 194.559 541.285 192.612 539.126 190.402C538.224 189.551 537.477 188.548 536.92 187.439C536.189 185.815 536.21 183.959 536.257 182.167C536.412 176.231 536.705 170.298 537.136 164.369" stroke="#3F3D56" stroke-width="4" stroke-miterlimit="10"/>
<path d="M530.435 164.074C530.485 162.986 530.809 161.929 531.374 161C531.94 160.07 532.73 159.298 533.672 158.754L535.125 161.628L535.078 158.148C536.396 157.759 537.803 157.8 539.096 158.265C540.389 158.729 541.501 159.593 542.272 160.731C543.043 161.87 543.433 163.224 543.385 164.599C543.338 165.974 542.855 167.298 542.007 168.38C541.159 169.462 539.989 170.246 538.667 170.62C537.345 170.993 535.939 170.936 534.651 170.457C533.363 169.978 532.261 169.101 531.503 167.954C530.745 166.807 530.371 165.448 530.435 164.074Z" fill="#8E3BDC"/>
<path d="M541.996 207.999C542.648 209.268 543.699 210.287 544.987 210.897C546.275 211.507 547.728 211.675 549.121 211.375C550.515 211.075 551.77 210.323 552.694 209.237C553.617 208.15 554.157 206.789 554.231 205.364C554.279 204.465 554.135 203.566 553.809 202.728C553.332 201.504 552.496 200.455 551.411 199.717C550.326 198.98 549.043 198.589 547.732 198.597C546.42 198.604 545.142 199.009 544.065 199.759C542.989 200.509 542.164 201.568 541.701 202.796L545.749 206.096L541.295 205.042C541.29 206.07 541.53 207.084 541.996 207.999V207.999Z" fill="#8E3BDC"/>
<path d="M545.197 195.399C546.787 195.474 548.35 194.961 549.586 193.956C550.822 192.951 551.646 191.526 551.9 189.951C552.153 188.377 551.82 186.765 550.962 185.421C550.105 184.078 548.783 183.098 547.25 182.668L547.287 185.341L545.818 182.43C544.968 182.391 544.118 182.519 543.317 182.808C542.516 183.097 541.78 183.541 541.15 184.115C540.521 184.689 540.011 185.382 539.649 186.153C539.286 186.925 539.08 187.76 539.04 188.612C539 189.463 539.128 190.314 539.417 191.116C539.706 191.918 540.149 192.655 540.722 193.286C541.296 193.916 541.987 194.427 542.758 194.79C543.528 195.152 544.362 195.36 545.213 195.399H545.197Z" fill="#8E3BDC"/>
<path d="M529.461 184.914C530.466 184.966 531.469 184.783 532.391 184.379C533.312 183.976 534.128 183.363 534.772 182.589C535.417 181.815 535.872 180.902 536.103 179.921C536.334 178.94 536.333 177.919 536.102 176.939C535.87 175.958 535.414 175.045 534.769 174.272C534.124 173.499 533.308 172.886 532.386 172.484C531.463 172.081 530.46 171.899 529.455 171.952C528.451 172.004 527.472 172.291 526.597 172.788L527.739 175.951L525.407 173.642C524.464 174.508 523.798 175.634 523.493 176.879C523.188 178.124 523.257 179.431 523.693 180.636C524.129 181.841 524.911 182.889 525.941 183.65C526.972 184.41 528.203 184.848 529.482 184.908L529.461 184.914Z" fill="#8E3BDC"/>
<path opacity="0.1" d="M531.309 165.803C532.804 165.966 534.257 166.43 535.763 166.525C537.268 166.62 538.921 166.256 539.858 165.091C540.299 164.412 540.7 163.708 541.059 162.982C541.468 162.343 542.029 161.814 542.691 161.443C543.11 162.265 543.349 163.168 543.392 164.09C543.435 165.013 543.281 165.934 542.941 166.792C542.6 167.65 542.08 168.425 541.416 169.066C540.752 169.707 539.959 170.199 539.09 170.508C538.221 170.818 537.297 170.938 536.378 170.861C535.459 170.784 534.567 170.511 533.761 170.061C532.956 169.611 532.256 168.994 531.708 168.252C531.159 167.509 530.776 166.658 530.582 165.755C530.819 165.761 531.067 165.776 531.309 165.803Z" fill="black"/>
<path opacity="0.1" d="M529.461 184.914C530.578 184.967 531.69 184.729 532.689 184.224C533.687 183.719 534.538 182.964 535.159 182.032C535.78 181.1 536.149 180.023 536.231 178.905C536.312 177.788 536.104 176.669 535.626 175.656C535.112 176.004 534.67 176.448 534.325 176.963C533.938 177.703 533.509 178.419 533.041 179.109C532.03 180.295 530.303 180.691 528.74 180.612C527.176 180.533 525.665 180.084 524.107 179.953C523.891 179.953 523.675 179.921 523.454 179.916C523.776 181.29 524.537 182.521 525.621 183.423C526.705 184.324 528.053 184.848 529.461 184.914Z" fill="black"/>
<path opacity="0.1" d="M545.196 195.399C546.302 195.451 547.403 195.219 548.394 194.724C549.384 194.229 550.232 193.488 550.855 192.572C551.479 191.655 551.857 190.595 551.955 189.49C552.053 188.386 551.867 187.275 551.414 186.263C550.88 186.615 550.414 187.062 550.04 187.581C549.615 188.338 549.146 189.069 548.634 189.769C547.544 190.987 545.702 191.419 544.049 191.351C542.396 191.282 540.89 190.924 539.311 190.823C539.704 192.099 540.479 193.223 541.533 194.041C542.586 194.86 543.865 195.334 545.196 195.399Z" fill="black"/>
<path opacity="0.1" d="M541.996 208C542.648 209.268 543.699 210.287 544.987 210.897C546.275 211.507 547.728 211.675 549.121 211.375C550.515 211.075 551.77 210.323 552.694 209.237C553.617 208.15 554.157 206.789 554.231 205.364C554.279 204.465 554.135 203.566 553.809 202.728C553.276 203.078 552.797 203.507 552.388 203.998C551.772 204.747 551.367 205.58 550.651 206.302C549.329 207.604 547.187 208.142 545.286 208.189C544.186 208.193 543.088 208.129 541.996 208V208Z" fill="black"/>
<path d="M334.555 177.08C335.929 174.533 334.371 171.412 332.575 169.14C330.78 166.868 328.601 164.501 328.648 161.606C328.711 157.442 333.123 154.985 336.65 152.781C339.265 151.14 341.675 149.193 343.831 146.982C344.738 146.136 345.487 145.134 346.042 144.024C346.769 142.395 346.748 140.545 346.706 138.752C346.548 132.816 346.255 126.884 345.826 120.954" stroke="#3F3D56" stroke-width="4" stroke-miterlimit="10"/>
<path d="M352.523 120.654C352.473 119.567 352.151 118.51 351.586 117.58C351.021 116.65 350.232 115.878 349.29 115.334L347.837 118.208L347.88 114.728C347.188 114.527 346.467 114.439 345.747 114.47C344.467 114.529 343.233 114.968 342.202 115.73C341.171 116.492 340.388 117.543 339.953 118.75C339.518 119.957 339.45 121.266 339.758 122.512C340.066 123.758 340.736 124.884 341.684 125.749C342.631 126.613 343.813 127.177 345.08 127.369C346.347 127.561 347.643 127.373 348.803 126.827C349.963 126.282 350.936 125.404 351.598 124.305C352.26 123.207 352.582 121.936 352.523 120.654V120.654Z" fill="#8E3BDC"/>
<path d="M340.967 164.58C340.288 165.904 339.174 166.954 337.813 167.554C336.452 168.154 334.927 168.267 333.493 167.874C332.058 167.482 330.803 166.607 329.936 165.397C329.069 164.187 328.645 162.715 328.733 161.229C328.821 159.742 329.418 158.332 330.421 157.233C331.425 156.135 332.776 155.415 334.246 155.196C335.717 154.976 337.218 155.27 338.499 156.027C339.779 156.784 340.76 157.959 341.278 159.355L337.229 162.655L341.683 161.601C341.687 162.637 341.441 163.659 340.967 164.58V164.58Z" fill="#8E3BDC"/>
<path d="M337.766 151.98C336.175 152.056 334.611 151.544 333.374 150.539C332.137 149.535 331.312 148.109 331.057 146.535C330.803 144.96 331.136 143.347 331.994 142.003C332.852 140.659 334.174 139.678 335.707 139.248L335.676 141.921L337.145 139.011C338.861 138.926 340.541 139.528 341.815 140.684C343.089 141.84 343.852 143.455 343.936 145.174C343.973 145.922 343.879 146.672 343.657 147.388C343.268 148.669 342.494 149.797 341.439 150.62C340.384 151.442 339.101 151.917 337.766 151.98V151.98Z" fill="#8E3BDC"/>
<path d="M353.497 141.483C352.492 141.535 351.49 141.351 350.568 140.947C349.647 140.543 348.832 139.93 348.188 139.155C347.544 138.381 347.089 137.468 346.859 136.487C346.628 135.507 346.629 134.486 346.861 133.506C347.093 132.525 347.55 131.613 348.195 130.84C348.84 130.067 349.656 129.455 350.578 129.053C351.501 128.65 352.504 128.468 353.508 128.521C354.513 128.574 355.491 128.861 356.366 129.358L355.218 132.521L357.577 130.259C358.206 130.83 358.716 131.52 359.078 132.289C359.439 133.058 359.645 133.891 359.683 134.741C359.714 135.341 359.659 135.943 359.52 136.528C359.189 137.897 358.423 139.121 357.336 140.015C356.25 140.909 354.902 141.424 353.497 141.483Z" fill="#8E3BDC"/>
<path opacity="0.1" d="M351.649 122.383C350.154 122.547 348.701 123.01 347.2 123.105C345.7 123.2 344.042 122.836 343.099 121.671C342.66 120.992 342.261 120.288 341.904 119.563C341.493 118.923 340.931 118.394 340.267 118.023C339.847 118.846 339.607 119.749 339.564 120.672C339.52 121.595 339.674 122.517 340.015 123.375C340.356 124.234 340.876 125.01 341.54 125.651C342.205 126.292 342.998 126.784 343.868 127.093C344.737 127.402 345.663 127.522 346.582 127.444C347.502 127.367 348.394 127.093 349.199 126.642C350.005 126.191 350.705 125.574 351.253 124.83C351.8 124.086 352.183 123.234 352.375 122.33C352.139 122.336 351.896 122.357 351.649 122.383Z" fill="black"/>
<path opacity="0.1" d="M353.496 141.483C352.38 141.535 351.268 141.296 350.271 140.791C349.273 140.285 348.423 139.53 347.802 138.599C347.182 137.667 346.813 136.591 346.73 135.474C346.648 134.358 346.855 133.239 347.332 132.226C347.847 132.573 348.29 133.017 348.637 133.533C349.024 134.272 349.453 134.989 349.922 135.679C350.927 136.865 352.654 137.261 354.218 137.181C355.781 137.102 357.292 136.654 358.851 136.522C359.066 136.522 359.288 136.491 359.503 136.486C359.182 137.86 358.421 139.091 357.337 139.993C356.253 140.895 354.904 141.418 353.496 141.483V141.483Z" fill="black"/>
<path opacity="0.1" d="M337.766 151.98C336.66 152.033 335.558 151.801 334.567 151.307C333.575 150.812 332.727 150.071 332.103 149.155C331.48 148.238 331.101 147.176 331.004 146.071C330.907 144.967 331.094 143.855 331.549 142.844C332.082 143.195 332.546 143.641 332.917 144.161C333.342 144.918 333.811 145.649 334.323 146.349C335.418 147.567 337.255 147.999 338.914 147.931C340.572 147.862 342.072 147.504 343.652 147.404C343.261 148.681 342.486 149.805 341.432 150.625C340.379 151.444 339.098 151.917 337.766 151.98V151.98Z" fill="black"/>
<path opacity="0.1" d="M340.967 164.58C340.206 166.048 338.914 167.171 337.355 167.717C335.795 168.263 334.086 168.193 332.577 167.52C331.068 166.847 329.872 165.622 329.235 164.095C328.598 162.569 328.566 160.856 329.148 159.308C329.684 159.656 330.163 160.084 330.569 160.578C331.185 161.327 331.622 162.16 332.307 162.882C333.633 164.184 335.771 164.722 337.676 164.77C338.776 164.77 339.875 164.707 340.967 164.58V164.58Z" fill="black"/>
<path d="M287.405 258.31C258.341 258.31 234.78 234.716 234.78 205.611C234.78 176.507 258.341 152.913 287.405 152.913C316.469 152.913 340.03 176.507 340.03 205.611C340.03 234.716 316.469 258.31 287.405 258.31Z" fill="white"/>
<path d="M257.476 189.69L273.233 205.743C273.26 205.77 273.283 205.802 273.298 205.837C273.313 205.872 273.32 205.91 273.32 205.949C273.32 205.987 273.313 206.025 273.298 206.06C273.283 206.096 273.26 206.128 273.233 206.154L262.177 217.927C261.913 218.193 261.733 218.533 261.66 218.901C261.587 219.27 261.625 219.652 261.768 220C261.912 220.347 262.155 220.645 262.466 220.854C262.778 221.064 263.144 221.177 263.52 221.179C264.025 221.178 264.509 220.977 264.867 220.621L275.865 208.89C275.921 208.835 275.997 208.804 276.076 208.804C276.154 208.804 276.23 208.835 276.286 208.89L278.966 211.6C280.063 212.724 281.373 213.616 282.82 214.226C284.266 214.835 285.82 215.149 287.389 215.148C288.988 215.141 290.57 214.814 292.041 214.188C293.513 213.562 294.845 212.648 295.96 211.5L298.534 208.864C298.591 208.809 298.666 208.778 298.745 208.778C298.824 208.778 298.899 208.809 298.956 208.864L309.927 220.568C310.104 220.745 310.313 220.885 310.544 220.981C310.775 221.077 311.022 221.126 311.272 221.126C311.522 221.126 311.769 221.077 312 220.981C312.231 220.885 312.441 220.745 312.617 220.568C312.795 220.391 312.936 220.182 313.032 219.95C313.128 219.719 313.177 219.471 313.177 219.221C313.177 218.97 313.128 218.722 313.032 218.491C312.936 218.26 312.795 218.05 312.617 217.874L301.604 206.128C301.555 206.071 301.528 205.998 301.528 205.922C301.528 205.847 301.555 205.774 301.604 205.717L317.361 189.664C317.401 189.623 317.453 189.595 317.509 189.584C317.565 189.572 317.624 189.578 317.677 189.6C317.73 189.622 317.775 189.66 317.807 189.708C317.839 189.755 317.856 189.812 317.855 189.869V221.991C317.851 223.233 317.357 224.423 316.48 225.301C315.603 226.179 314.415 226.674 313.175 226.678H261.651C260.411 226.674 259.223 226.179 258.346 225.301C257.469 224.423 256.975 223.233 256.97 221.991V189.896C256.968 189.836 256.984 189.777 257.016 189.726C257.048 189.676 257.095 189.637 257.151 189.614C257.206 189.592 257.267 189.587 257.325 189.601C257.383 189.614 257.436 189.645 257.476 189.69V189.69Z" fill="#8E3BDC"/>
<path d="M287.405 211.337C286.337 211.347 285.277 211.143 284.29 210.735C283.302 210.328 282.407 209.725 281.656 208.964L258.708 185.573C259.522 184.897 260.545 184.524 261.603 184.518H313.165C314.223 184.522 315.247 184.895 316.06 185.573L293.106 208.964C292.362 209.721 291.475 210.321 290.495 210.728C289.516 211.136 288.465 211.343 287.405 211.337V211.337Z" fill="#8E3BDC"/>
<path opacity="0.1" d="M288.068 152.918C298.483 152.913 308.665 156.001 317.327 161.792C325.988 167.583 332.74 175.816 336.728 185.451C340.716 195.085 341.761 205.687 339.73 215.916C337.7 226.145 332.685 235.541 325.321 242.916C317.957 250.291 308.574 255.312 298.359 257.345C288.144 259.379 277.557 258.333 267.936 254.339C258.315 250.346 250.093 243.584 244.31 234.911C238.527 226.237 235.444 216.041 235.449 205.611C235.456 191.638 241.002 178.24 250.868 168.359C260.735 158.479 274.115 152.925 288.068 152.918ZM288.068 251.303C297.093 251.303 305.915 248.624 313.418 243.603C320.922 238.582 326.77 231.446 330.223 223.097C333.677 214.748 334.581 205.561 332.82 196.697C331.059 187.834 326.714 179.692 320.332 173.302C313.951 166.912 305.821 162.56 296.97 160.797C288.119 159.034 278.945 159.939 270.607 163.397C262.27 166.856 255.144 172.712 250.13 180.226C245.116 187.74 242.44 196.574 242.44 205.611C242.44 217.73 247.247 229.352 255.804 237.92C264.361 246.489 275.967 251.303 288.068 251.303Z" fill="black"/>
<path d="M161.66 232.625C162.137 231.458 162.627 230.295 163.129 229.135C163.542 228.003 164.15 226.952 164.924 226.029C165.218 225.697 165.576 225.428 165.977 225.239C166.418 225.076 166.882 224.983 167.351 224.965C168.067 224.874 168.79 224.855 169.51 224.907C169.789 224.822 170.105 224.712 170.415 224.585C168.857 224.175 167.472 223.275 166.464 222.018C165.455 220.76 164.877 219.211 164.814 217.6C164.814 217.494 164.814 217.383 164.814 217.278C164.809 216.291 164.999 215.314 165.373 214.401C165.746 213.488 166.295 212.657 166.989 211.957C167.682 211.256 168.507 210.699 169.416 210.318C170.324 209.936 171.299 209.738 172.284 209.734C173.671 209.731 175.03 210.12 176.206 210.857C177.759 210.504 179.385 210.689 180.82 211.381C182.254 212.074 183.411 213.232 184.103 214.668C184.975 215.504 185.664 216.512 186.126 217.628C186.589 218.744 186.814 219.945 186.788 221.153C186.788 221.264 186.788 221.38 186.788 221.485C186.651 225.581 184.008 228.866 180.671 229.198C181.027 229.358 181.355 229.578 181.639 229.846C182.661 230.832 182.829 232.398 182.94 233.821L183.019 234.876L184.787 235.508C184.844 235.529 184.893 235.564 184.931 235.61C184.969 235.657 184.993 235.712 185.001 235.772C185.009 235.831 185.001 235.891 184.977 235.946C184.954 236.001 184.915 236.049 184.866 236.083L183.177 237.29C183.177 237.391 183.177 237.491 183.177 237.591C183.177 237.691 183.177 237.818 183.145 237.934C183.434 238.188 183.657 238.508 183.798 238.867C183.962 239.42 184.014 240.001 183.95 240.575L183.887 242.046C183.896 243.153 183.745 244.255 183.44 245.32C183.219 245.973 182.26 247.55 181.571 247.56C182.208 250.46 182.376 256.575 182.376 256.575C182.455 256.654 182.234 256.728 181.85 256.791C181.471 259.701 180.234 267.862 178.038 271.453C177.693 272.623 177.417 273.813 177.212 275.016C177.212 275.016 176.585 282.771 175.759 285.075C175.053 287.037 174.495 291.876 174.343 293.278C174.486 293.315 174.616 293.391 174.719 293.497C174.822 293.603 174.894 293.735 174.927 293.88C175.343 295.134 178.038 297.043 178.038 297.043C178.865 297.456 179.645 297.956 180.365 298.535C181.213 299.299 181.181 299.99 177.417 299.557C170.152 298.719 168.909 296.394 168.909 296.394C168.909 296.394 169.025 296.004 169.199 295.498C169.421 294.71 169.741 293.954 170.152 293.247C170.257 293.147 170.363 293.315 170.489 293.579C171.037 290.215 171.203 286.8 170.984 283.399C170.984 283.399 170.778 279.835 171.816 277.32C172.046 276.004 172.046 274.657 171.816 273.34C171.4 271.663 173.474 263.487 173.474 263.487L174.664 257.466C174.502 257.672 174.388 257.911 174.332 258.167L174.3 258.289L174.269 258.463C174.257 258.524 174.228 258.581 174.185 258.626C173.374 262 171.152 271.347 171.152 272.718C171.152 274.394 169.078 278.586 169.078 278.586C169.078 278.586 168.251 285.502 166.798 288.223C165.693 290.295 165.666 293.331 165.719 294.67C165.719 294.67 165.967 296.394 166.382 296.811C166.713 297.222 166.978 297.683 167.167 298.176L167.214 298.276C167.214 298.276 167.836 299.536 167.42 299.747C165.838 300.369 164.126 300.584 162.439 300.375C162.439 300.375 161.607 299.32 161.607 298.909C161.625 298.658 161.656 298.408 161.702 298.16C161.855 297.169 162.139 295.609 162.144 295.593C161.971 294.918 162.671 293.041 162.671 293.041L162.882 287.174C162.496 283.201 162.992 279.191 164.335 275.433C164.335 275.433 165.387 271.663 165.161 270.614C164.935 269.565 165.577 258.457 165.577 258.457L165.64 258.299C165.696 257.513 165.675 256.724 165.577 255.943C165.372 253.428 166.198 248.188 166.409 247.982C166.581 247.419 166.68 246.836 166.704 246.247C166.656 245.81 166.514 244.529 166.319 242.937C164.272 242.867 162.231 242.691 160.202 242.409C160.006 242.409 159.817 242.334 159.675 242.199C159.592 242.072 159.55 241.923 159.554 241.772C159.312 238.614 160.465 235.545 161.66 232.625ZM165.835 239.273C165.619 237.77 165.387 236.315 165.156 235.234L165.124 235.329C164.726 236.416 164.392 237.525 164.124 238.651C164.677 238.904 165.249 239.112 165.835 239.273Z" fill="url(#paint0_linear_654:2)"/>
<path d="M181.96 256.243C181.96 256.243 180.718 267.435 178.028 271.785C177.682 272.941 177.406 274.117 177.201 275.306C177.201 275.306 176.58 282.972 175.754 285.249C174.927 287.527 174.306 293.748 174.306 293.748C174.306 293.748 171.41 297.058 170.373 294.37C171.024 290.817 171.233 287.198 170.994 283.594C170.994 283.594 170.789 280.072 171.821 277.584C172.052 276.283 172.052 274.952 171.821 273.651C171.41 271.99 173.479 263.914 173.479 263.914L175.132 255.832L181.96 256.243Z" fill="#BE6F72"/>
<path d="M168.925 296.442C168.925 296.442 170.167 298.719 177.406 299.547C181.165 299.974 181.191 299.294 180.344 298.535C179.625 297.963 178.849 297.468 178.027 297.059C178.027 297.059 175.337 295.198 174.927 293.953C174.516 292.709 173.063 293.748 173.063 293.748C170.994 296.853 170.578 292.915 170.167 293.331C169.755 294.027 169.435 294.773 169.215 295.551C169.041 296.052 168.925 296.442 168.925 296.442Z" fill="#FF6F61"/>
<path opacity="0.1" d="M168.925 296.442C168.925 296.442 170.167 298.719 177.406 299.547C181.165 299.974 181.191 299.294 180.344 298.535C179.754 298.909 178.564 299.062 176.169 298.097C172.721 296.684 170.22 295.867 169.215 295.551C169.041 296.052 168.925 296.442 168.925 296.442Z" fill="black"/>
<path opacity="0.1" d="M170.994 283.594C170.994 283.594 170.789 280.072 171.821 277.584C172.051 276.283 172.051 274.952 171.821 273.651C171.41 271.99 173.479 263.914 173.479 263.914L175.132 255.832L176.564 255.916L174.927 263.914C174.927 263.914 172.858 271.99 173.268 273.651C173.499 274.952 173.499 276.283 173.268 277.584C172.215 280.072 172.442 283.594 172.442 283.594C172.681 287.198 172.472 290.817 171.821 294.37C171.933 294.707 172.141 295.004 172.421 295.224C171.652 295.572 170.841 295.556 170.373 294.37C171.024 290.817 171.233 287.198 170.994 283.594V283.594Z" fill="black"/>
<path d="M172.342 210.767C173.722 210.764 175.076 211.15 176.248 211.88C177.796 211.522 179.42 211.7 180.854 212.384C182.288 213.069 183.448 214.22 184.145 215.649C185.014 216.472 185.7 217.467 186.162 218.571C186.623 219.675 186.849 220.863 186.825 222.06C186.825 226.467 183.861 230.036 180.207 230.036C177.575 230.036 175.269 228.16 174.211 225.444C173.603 225.606 172.976 225.687 172.347 225.687C170.372 225.687 168.477 224.901 167.08 223.502C165.683 222.103 164.898 220.206 164.898 218.227C164.898 216.249 165.683 214.351 167.08 212.952C168.477 211.553 170.372 210.767 172.347 210.767H172.342Z" fill="#3F3D56"/>
<path d="M166.235 257.282L165.614 258.937C165.614 258.937 164.993 269.919 165.203 270.957C165.414 271.996 164.371 275.702 164.371 275.702C163.033 279.412 162.539 283.374 162.924 287.3L162.718 293.099C162.718 293.099 161.892 295.377 162.302 295.793C162.713 296.21 165.835 295.424 165.835 295.424C165.835 295.424 165.419 291.075 166.888 288.381C168.357 285.687 169.162 278.849 169.162 278.849C169.162 278.849 171.231 274.706 171.231 273.05C171.231 271.395 174.542 257.925 174.542 257.925L166.235 257.282Z" fill="#BE6F72"/>
<path d="M182.376 257.076C182.376 257.076 182.166 249.616 181.323 247.339C180.895 246.275 180.586 245.166 180.402 244.033C180.402 244.033 167.878 246.3 166.84 245.472C166.84 245.472 166.635 248.372 166.424 248.578C166.214 248.783 165.372 253.966 165.598 256.454C165.824 258.942 165.598 258.937 165.598 258.937C165.598 258.937 174.084 260.181 174.29 258.937C174.495 257.693 175.116 257.698 175.116 257.698C175.116 257.698 182.787 257.466 182.376 257.076Z" fill="#3F3D56"/>
<g opacity="0.1">
<path opacity="0.1" d="M175.548 257.076C175.548 257.076 180.781 256.934 182.361 256.649C182.361 256.918 182.361 257.076 182.361 257.076C182.771 257.487 175.116 257.698 175.116 257.698C175.012 257.708 174.913 257.748 174.832 257.814C175.111 257.076 175.548 257.076 175.548 257.076Z" fill="black"/>
<path opacity="0.1" d="M166.441 248.578C166.651 248.372 166.857 245.472 166.857 245.472C166.964 245.539 167.084 245.582 167.209 245.599C167.136 246.474 166.993 247.818 166.857 247.956C166.72 248.093 165.804 253.343 166.03 255.832C166.256 258.32 166.03 258.315 166.03 258.315C166.03 258.315 172.742 259.301 174.369 258.642C174.369 258.731 174.322 258.832 174.306 258.937C174.101 260.181 165.614 258.937 165.614 258.937C165.614 258.937 165.825 258.937 165.614 256.454C165.403 253.971 166.235 248.788 166.441 248.578Z" fill="black"/>
</g>
<path d="M173.258 223.821C173.08 224.22 172.809 224.57 172.468 224.843C172.249 225.007 171.995 225.117 171.726 225.165C172.189 225.434 172.695 225.634 173.158 225.903C173.887 226.394 174.59 226.922 175.264 227.485C175.953 228.04 176.797 228.368 177.68 228.423C177.37 228.005 177.176 227.512 177.117 226.995C177.058 226.478 177.136 225.954 177.343 225.476C177.533 225.163 177.658 224.815 177.712 224.453C177.712 223.858 177.185 223.399 176.696 223.083C176.301 222.814 175.896 222.555 175.485 222.297C175.164 222.097 174.68 221.675 174.274 221.691C173.869 221.707 173.821 222.065 173.748 222.434C173.643 222.915 173.479 223.381 173.258 223.821V223.821Z" fill="#BE6F72"/>
<path opacity="0.1" d="M173.258 223.821C173.08 224.22 172.809 224.57 172.468 224.843C172.249 225.007 171.995 225.117 171.726 225.165C172.189 225.434 172.695 225.634 173.158 225.903C173.887 226.394 174.59 226.922 175.264 227.485C175.953 228.04 176.797 228.368 177.68 228.423C177.37 228.005 177.176 227.512 177.117 226.995C177.058 226.478 177.136 225.954 177.343 225.476C177.533 225.163 177.658 224.815 177.712 224.453C177.712 223.858 177.185 223.399 176.696 223.083C176.301 222.814 175.896 222.555 175.485 222.297C175.164 222.097 174.68 221.675 174.274 221.691C173.869 221.707 173.821 222.065 173.748 222.434C173.643 222.915 173.479 223.381 173.258 223.821V223.821Z" fill="black"/>
<path d="M168.409 236.046C165.781 236.046 163.65 233.913 163.65 231.28C163.65 228.648 165.781 226.515 168.409 226.515C171.038 226.515 173.168 228.648 173.168 231.28C173.168 233.913 171.038 236.046 168.409 236.046Z" fill="#BE6F72"/>
<path d="M161.686 298.925C161.686 299.341 162.513 300.375 162.513 300.375C164.193 300.581 165.899 300.368 167.477 299.752C167.893 299.547 167.272 298.303 167.272 298.303L167.225 298.203C167.035 297.715 166.77 297.259 166.44 296.853C166.029 296.442 165.782 294.744 165.782 294.744C164.497 292.635 162.218 295.656 162.218 295.656C162.218 295.656 161.928 297.238 161.776 298.197C161.723 298.54 161.686 298.819 161.686 298.925Z" fill="#FF6F61"/>
<path opacity="0.1" d="M161.686 298.925C161.686 299.341 162.513 300.375 162.513 300.375C164.193 300.581 165.899 300.368 167.477 299.753C167.893 299.547 167.272 298.303 167.272 298.303L167.225 298.203C165.815 298.858 164.272 299.176 162.718 299.13L161.776 298.187C161.723 298.54 161.686 298.819 161.686 298.925Z" fill="black"/>
<path d="M177.928 225.993C175.357 225.993 173.274 223.906 173.274 221.332C173.274 218.758 175.357 216.672 177.928 216.672C180.498 216.672 182.582 218.758 182.582 221.332C182.582 223.906 180.498 225.993 177.928 225.993Z" fill="#BE6F72"/>
<path d="M181.681 230.653C182.703 231.628 182.871 233.173 182.976 234.581L183.134 236.642C183.191 237.197 183.204 237.756 183.171 238.313C183.171 238.656 183.087 239.004 183.055 239.368C183.024 239.731 183.013 240.19 183.008 240.607V243.654C183.058 244.283 182.942 244.914 182.671 245.483C182.527 245.759 182.284 245.97 181.992 246.075C181.7 246.181 181.378 246.173 181.092 246.052C180.765 245.8 180.534 245.443 180.439 245.04C179.925 243.804 179.572 242.507 179.386 241.181C179.344 240.723 179.339 240.264 179.297 239.805C179.254 239.347 179.175 238.867 179.107 238.403C178.812 236.463 178.681 234.502 178.549 232.546C178.512 231.966 177.991 229.683 178.749 229.43C179.118 229.309 179.881 229.688 180.234 229.815C180.768 229.994 181.26 230.279 181.681 230.653V230.653Z" fill="#BE6F72"/>
<path opacity="0.1" d="M181.681 230.653C182.703 231.628 182.871 233.173 182.976 234.581L183.134 236.642C183.191 237.197 183.204 237.756 183.171 238.313C183.171 238.656 183.087 239.004 183.055 239.368C183.024 239.731 183.013 240.19 183.008 240.607V243.654C183.058 244.283 182.942 244.914 182.671 245.483C182.527 245.759 182.284 245.97 181.992 246.075C181.7 246.181 181.378 246.173 181.092 246.052C180.765 245.8 180.534 245.443 180.439 245.04C179.925 243.804 179.572 242.507 179.386 241.181C179.344 240.723 179.339 240.264 179.297 239.805C179.254 239.347 179.175 238.867 179.107 238.403C178.812 236.463 178.681 234.502 178.549 232.546C178.512 231.966 177.991 229.683 178.749 229.43C179.118 229.309 179.881 229.688 180.234 229.815C180.768 229.994 181.26 230.279 181.681 230.653V230.653Z" fill="black"/>
<path d="M172.031 224.337C172.031 224.337 175.548 227.031 177.617 227.653C177.617 227.653 178.844 229.056 179.054 229.393C179.265 229.73 179.686 233.452 180.107 234.285C180.529 235.118 181.555 236.979 180.107 238.84C180.107 238.84 179.697 240.707 179.902 241.329C180.107 241.951 180.86 244.228 180.176 244.334C179.491 244.439 177.417 245.884 175.559 245.472C173.7 245.061 166.762 247.054 166.762 247.054C166.762 247.054 165.614 236.378 164.782 234.491L166.646 233.869C166.646 233.869 171.816 230.764 168.715 225.998C168.72 225.998 171.626 225.376 172.031 224.337Z" fill="#FF6F61"/>
<path d="M184.872 236.816L180.597 239.847C180.543 239.887 180.477 239.909 180.41 239.909C180.343 239.909 180.277 239.887 180.223 239.847L179.065 238.977C179.029 238.947 179.001 238.909 178.981 238.866C178.961 238.823 178.951 238.777 178.951 238.73C178.951 238.683 178.961 238.636 178.981 238.593C179.001 238.55 179.029 238.512 179.065 238.482L182.355 235.556C182.398 235.517 182.45 235.49 182.507 235.479C182.564 235.468 182.622 235.473 182.676 235.493L184.787 236.252C184.843 236.271 184.892 236.305 184.93 236.35C184.967 236.395 184.992 236.45 185 236.508C185.009 236.566 185.002 236.626 184.979 236.68C184.956 236.734 184.919 236.781 184.872 236.816V236.816Z" fill="#3F3D56"/>
<path d="M183.434 245.947C183.736 244.897 183.887 243.808 183.882 242.715L183.945 241.255C184.008 240.688 183.956 240.114 183.792 239.568C183.63 239.193 183.387 238.859 183.08 238.59C182.773 238.321 182.41 238.124 182.018 238.013C181.232 237.794 180.411 237.735 179.602 237.839C179.493 237.839 179.385 237.868 179.291 237.923C179.208 237.999 179.15 238.098 179.123 238.208C179.003 238.441 178.933 238.697 178.916 238.96C178.9 239.222 178.938 239.484 179.028 239.731C179.15 239.932 179.315 240.103 179.512 240.232C180.086 240.643 180.755 240.917 181.297 241.366C181.407 241.44 181.492 241.547 181.539 241.671C181.565 241.78 181.565 241.894 181.539 242.003C181.472 242.294 181.38 242.578 181.265 242.852C181.219 242.99 181.137 243.114 181.028 243.211C180.928 243.295 180.797 243.327 180.691 243.406C180.465 243.59 179.991 243.833 180.018 244.123C180.097 245.177 180.728 246.358 180.976 247.402C181.449 249.442 183.129 246.838 183.434 245.947Z" fill="#BE6F72"/>
<g opacity="0.1">
<path opacity="0.1" d="M176.785 245.472H176.901C176.454 245.559 175.995 245.559 175.548 245.472H175.416C175.87 245.406 176.331 245.406 176.785 245.472Z" fill="black"/>
<path opacity="0.1" d="M165.924 234.18C166.666 235.851 167.761 244.903 167.956 246.701C167.23 246.891 166.75 247.028 166.75 247.028C166.75 247.028 165.613 236.378 164.781 234.491L165.924 234.18Z" fill="black"/>
</g>
<path d="M168.246 231.428C168.208 231.636 168.128 231.834 168.011 232.011C167.894 232.188 167.743 232.339 167.567 232.456C167.128 232.825 166.724 233.234 166.362 233.679C165.841 234.412 165.438 235.221 165.167 236.078C164.771 237.151 164.439 238.246 164.172 239.357C166.804 240.58 169.794 240.522 172.595 241.329C173.801 241.647 174.894 242.295 175.754 243.2C176.182 243.655 176.508 244.197 176.708 244.789C176.909 245.382 176.98 246.01 176.917 246.632C176.913 246.705 176.891 246.776 176.854 246.838C176.808 246.89 176.751 246.93 176.687 246.955C176.623 246.981 176.554 246.991 176.485 246.986C175.786 246.985 175.106 246.751 174.553 246.321C174.007 245.894 173.511 245.406 173.074 244.866C172.803 244.513 172.438 244.242 172.021 244.086C170.5 243.622 168.862 243.648 167.283 243.622C164.921 243.576 162.563 243.389 160.223 243.063C160.138 243.073 160.051 243.064 159.97 243.036C159.888 243.008 159.815 242.961 159.754 242.9C159.693 242.84 159.647 242.766 159.619 242.684C159.591 242.603 159.581 242.516 159.591 242.431C159.36 239.32 160.513 236.283 161.697 233.4C162.171 232.243 162.659 231.092 163.161 229.947C163.574 228.827 164.18 227.789 164.951 226.878C165.243 226.547 165.602 226.282 166.004 226.098C166.457 225.934 166.933 225.845 167.414 225.834C168.181 225.731 168.956 225.717 169.726 225.792C169.848 226.181 169.923 226.583 169.947 226.989C169.905 228.412 169.283 229.746 168.673 231.033C168.594 231.228 168.367 231.238 168.246 231.428Z" fill="#BE6F72"/>
<path opacity="0.1" d="M176.675 234.096C177.031 234.706 177.213 235.403 177.201 236.11C177.2 236.389 177.155 236.666 177.07 236.932C176.926 237.305 176.7 237.64 176.41 237.914C176.119 238.188 175.77 238.393 175.39 238.514" stroke="black" stroke-miterlimit="10"/>
<path d="M173.995 216.777C174.254 216.777 174.512 216.817 174.758 216.899C175.448 215.844 177.07 215.117 178.97 215.117C181.487 215.117 183.524 216.419 183.524 218.022C183.524 219.624 181.487 220.921 178.97 220.921C178.028 220.931 177.095 220.733 176.238 220.341C176.045 220.741 175.749 221.081 175.38 221.327C175.011 221.573 174.584 221.715 174.141 221.74C173.699 221.764 173.258 221.669 172.865 221.465C172.472 221.261 172.14 220.956 171.905 220.58C171.669 220.204 171.539 219.772 171.527 219.329C171.514 218.885 171.621 218.447 171.836 218.058C172.05 217.67 172.364 217.347 172.746 217.121C173.128 216.896 173.563 216.777 174.006 216.777H173.995Z" fill="#3F3D56"/>
<path opacity="0.1" d="M173.789 221.127C174.256 221.127 174.713 220.995 175.108 220.745C175.503 220.496 175.82 220.141 176.022 219.719C176.879 220.111 177.812 220.309 178.754 220.299C181.265 220.299 183.303 219.002 183.303 217.399C183.311 217.303 183.311 217.206 183.303 217.109C183.452 217.39 183.532 217.703 183.534 218.021C183.534 219.603 181.497 220.921 178.98 220.921C178.038 220.931 177.105 220.733 176.248 220.341C176.021 220.812 175.652 221.199 175.193 221.447C174.734 221.695 174.208 221.792 173.69 221.724C173.173 221.656 172.69 221.426 172.311 221.066C171.932 220.707 171.675 220.238 171.578 219.724C171.779 220.142 172.092 220.495 172.483 220.743C172.874 220.991 173.327 221.124 173.789 221.127V221.127Z" fill="black"/>
<path opacity="0.1" d="M184.14 216.872C183.443 215.443 182.283 214.292 180.848 213.607C179.414 212.923 177.791 212.745 176.243 213.103C175.16 212.433 173.923 212.053 172.651 211.998C171.379 211.943 170.115 212.216 168.978 212.791C167.842 213.365 166.871 214.222 166.16 215.279C165.448 216.336 165.019 217.558 164.914 218.828C164.914 218.623 164.914 218.417 164.914 218.206C164.916 216.88 165.272 215.579 165.945 214.437C166.617 213.294 167.582 212.352 168.739 211.708C169.896 211.063 171.204 210.739 172.527 210.77C173.851 210.8 175.143 211.183 176.269 211.88C177.817 211.522 179.441 211.7 180.875 212.384C182.309 213.069 183.469 214.22 184.166 215.649C185.035 216.472 185.721 217.467 186.183 218.571C186.644 219.675 186.87 220.863 186.846 222.06C186.846 222.271 186.846 222.476 186.846 222.682C186.743 220.464 185.77 218.377 184.14 216.872Z" fill="black"/>
<path d="M136.674 218.454C135.3 215.907 136.859 212.781 138.654 210.509C140.449 208.237 142.629 205.875 142.581 202.975C142.518 198.816 138.106 196.359 134.579 194.15C131.964 192.509 129.554 190.562 127.398 188.351C126.492 187.504 125.744 186.502 125.187 185.393C124.46 183.764 124.482 181.914 124.524 180.121C124.678 174.182 124.971 168.249 125.403 162.323" stroke="#3F3D56" stroke-width="4" stroke-miterlimit="10"/>
<path d="M118.706 162.007C118.757 160.921 119.079 159.865 119.644 158.936C120.209 158.007 120.998 157.236 121.939 156.693L123.392 159.566L123.35 156.087C124.041 155.88 124.762 155.793 125.482 155.828C126.762 155.888 127.996 156.327 129.028 157.089C130.059 157.851 130.842 158.902 131.277 160.11C131.711 161.317 131.779 162.627 131.47 163.873C131.162 165.119 130.491 166.245 129.543 167.109C128.596 167.974 127.413 168.537 126.146 168.728C124.878 168.92 123.583 168.73 122.423 168.184C121.263 167.638 120.29 166.759 119.629 165.66C118.967 164.56 118.646 163.289 118.706 162.007V162.007Z" fill="#8E3BDC"/>
<path d="M130.262 205.938C130.942 207.262 132.055 208.312 133.416 208.911C134.777 209.511 136.302 209.623 137.736 209.23C139.17 208.837 140.426 207.963 141.292 206.753C142.159 205.543 142.583 204.072 142.495 202.585C142.407 201.099 141.811 199.689 140.807 198.59C139.804 197.492 138.454 196.772 136.983 196.552C135.513 196.332 134.012 196.625 132.732 197.382C131.451 198.139 130.47 199.313 129.951 200.708L134 204.009L129.546 202.954C129.542 203.992 129.787 205.016 130.262 205.938V205.938Z" fill="#8E3BDC"/>
<path d="M133.463 193.333C135.054 193.409 136.617 192.897 137.855 191.892C139.092 190.888 139.917 189.462 140.172 187.888C140.426 186.313 140.093 184.7 139.235 183.356C138.377 182.012 137.055 181.031 135.521 180.601L135.553 183.274L134.084 180.369C132.367 180.29 130.689 180.897 129.418 182.057C128.148 183.216 127.389 184.834 127.309 186.553C127.268 187.404 127.396 188.255 127.684 189.057C127.973 189.859 128.416 190.596 128.989 191.226C129.562 191.857 130.254 192.367 131.024 192.73C131.794 193.092 132.628 193.299 133.479 193.338L133.463 193.333Z" fill="#8E3BDC"/>
<path d="M117.732 182.852C118.737 182.903 119.74 182.72 120.661 182.316C121.583 181.912 122.398 181.298 123.041 180.524C123.685 179.75 124.14 178.837 124.37 177.856C124.601 176.876 124.6 175.855 124.368 174.875C124.136 173.894 123.679 172.982 123.034 172.209C122.389 171.436 121.573 170.824 120.651 170.421C119.729 170.019 118.725 169.837 117.721 169.89C116.716 169.943 115.738 170.23 114.863 170.727L116.011 173.89L113.652 171.623C113.024 172.194 112.514 172.884 112.153 173.653C111.791 174.422 111.585 175.255 111.546 176.104C111.515 176.705 111.57 177.307 111.709 177.891C112.04 179.261 112.806 180.486 113.892 181.38C114.979 182.275 116.327 182.792 117.732 182.852V182.852Z" fill="#8E3BDC"/>
<path opacity="0.1" d="M119.575 163.736C121.07 163.905 122.528 164.369 124.029 164.464C125.529 164.559 127.188 164.195 128.13 163.024C128.57 162.346 128.969 161.642 129.325 160.916C129.736 160.277 130.296 159.749 130.957 159.376C131.377 160.199 131.617 161.102 131.66 162.025C131.704 162.948 131.55 163.87 131.209 164.728C130.868 165.587 130.348 166.363 129.684 167.004C129.019 167.645 128.226 168.137 127.356 168.446C126.487 168.755 125.561 168.875 124.642 168.797C123.722 168.72 122.83 168.446 122.024 167.995C121.219 167.545 120.519 166.927 119.971 166.183C119.424 165.439 119.041 164.587 118.848 163.683C119.091 163.694 119.333 163.71 119.575 163.736Z" fill="black"/>
<path opacity="0.1" d="M117.732 182.852C118.849 182.904 119.96 182.665 120.958 182.16C121.956 181.654 122.806 180.899 123.426 179.968C124.047 179.036 124.416 177.96 124.498 176.843C124.581 175.727 124.374 174.608 123.897 173.595C123.382 173.94 122.938 174.382 122.591 174.897C122.207 175.637 121.778 176.354 121.307 177.043C120.301 178.234 118.574 178.624 117.011 178.55C115.447 178.477 113.936 178.023 112.378 177.891C112.162 177.891 111.941 177.854 111.725 177.849C112.047 179.224 112.807 180.456 113.891 181.359C114.975 182.262 116.324 182.786 117.732 182.852V182.852Z" fill="black"/>
<path opacity="0.1" d="M133.463 193.333C134.571 193.387 135.674 193.156 136.667 192.66C137.659 192.165 138.508 191.423 139.132 190.505C139.757 189.587 140.135 188.524 140.231 187.417C140.327 186.311 140.137 185.198 139.68 184.186C139.149 184.54 138.686 184.986 138.312 185.504C137.785 186.216 137.496 187.038 136.906 187.692C135.811 188.915 133.974 189.342 132.315 189.305C130.657 189.268 129.156 188.873 127.577 188.752C127.968 190.029 128.743 191.155 129.796 191.975C130.85 192.794 132.13 193.269 133.463 193.333V193.333Z" fill="black"/>
<path opacity="0.1" d="M130.262 205.938C131.035 207.386 132.327 208.487 133.878 209.02C135.429 209.553 137.124 209.478 138.621 208.809C140.119 208.141 141.309 206.93 141.951 205.419C142.592 203.908 142.639 202.21 142.081 200.666C141.546 201.016 141.067 201.444 140.66 201.937C140.039 202.691 139.633 203.518 138.922 204.246C137.596 205.548 135.458 206.081 133.553 206.133C132.453 206.132 131.354 206.067 130.262 205.938V205.938Z" fill="black"/>
<path d="M52.9674 298.587C51.5933 296.041 53.1516 292.915 54.9469 290.643C56.7421 288.37 58.9216 286.009 58.8742 283.109C58.8111 278.949 54.3993 276.493 50.8721 274.284C48.2572 272.643 45.8466 270.696 43.6911 268.485C42.7854 267.637 42.0368 266.636 41.48 265.527C40.7535 263.898 40.7745 262.048 40.8166 260.255C40.9676 254.315 41.2606 248.383 41.6958 242.457" stroke="#3F3D56" stroke-width="4" stroke-miterlimit="10"/>
<path d="M34.9988 242.141C35.049 241.054 35.3714 239.998 35.9363 239.07C36.5012 238.141 37.2904 237.37 38.2312 236.827L39.6843 239.7L39.6422 236.22C40.3247 236.017 41.0366 235.929 41.748 235.962C43.0284 236.022 44.2624 236.46 45.2938 237.223C46.3253 237.985 47.1079 239.036 47.5426 240.244C47.9774 241.451 48.0448 242.761 47.7363 244.007C47.4278 245.252 46.7572 246.379 45.8095 247.243C44.8617 248.107 43.6794 248.671 42.4119 248.862C41.1444 249.053 39.8486 248.864 38.6886 248.318C37.5286 247.772 36.5564 246.893 35.8949 245.794C35.2334 244.694 34.9125 243.423 34.9725 242.141H34.9988Z" fill="#8E3BDC"/>
<path d="M46.555 286.072C47.2348 287.396 48.3484 288.445 49.7093 289.045C51.0702 289.644 52.5955 289.757 54.0294 289.364C55.4634 288.971 56.7188 288.096 57.5852 286.886C58.4515 285.676 58.8761 284.205 58.7879 282.719C58.6996 281.233 58.1038 279.822 57.1003 278.724C56.0969 277.625 54.7468 276.906 53.2764 276.686C51.8061 276.466 50.3049 276.759 49.0246 277.515C47.7442 278.272 46.7626 279.447 46.2444 280.842L50.2929 284.142L45.839 283.088C45.8346 284.126 46.0802 285.149 46.555 286.072V286.072Z" fill="#8E3BDC"/>
<path d="M49.7558 273.467C51.3468 273.543 52.9103 273.03 54.1478 272.026C55.3852 271.022 56.21 269.596 56.4645 268.022C56.7191 266.447 56.3857 264.834 55.5279 263.49C54.6702 262.146 53.3482 261.165 51.8143 260.735L51.8459 263.408L50.377 260.503C48.6598 260.424 46.9817 261.031 45.7113 262.191C44.4408 263.35 43.682 264.967 43.6015 266.687C43.5611 267.538 43.6888 268.389 43.9772 269.191C44.2655 269.993 44.7089 270.73 45.2819 271.36C45.855 271.99 46.5465 272.501 47.3169 272.864C48.0873 273.226 48.9214 273.433 49.7716 273.472L49.7558 273.467Z" fill="#8E3BDC"/>
<path d="M34.0251 262.986C35.0298 263.037 36.0325 262.854 36.954 262.45C37.8756 262.045 38.6905 261.432 39.3343 260.658C39.9781 259.884 40.4332 258.971 40.6634 257.99C40.8937 257.009 40.8928 255.989 40.6608 255.008C40.4289 254.028 39.9722 253.115 39.327 252.342C38.6819 251.57 37.8659 250.958 36.9437 250.555C36.0215 250.153 35.0183 249.971 34.0138 250.024C33.0092 250.077 32.0308 250.363 31.1559 250.861L32.3035 254.024L29.945 251.757C29.3166 252.328 28.8071 253.018 28.4457 253.787C28.0843 254.556 27.8782 255.389 27.8391 256.238C27.8076 256.838 27.8625 257.44 28.0023 258.025C28.3325 259.395 29.0986 260.619 30.1852 261.514C31.2717 262.409 32.6195 262.926 34.0251 262.986V262.986Z" fill="#8E3BDC"/>
<path opacity="0.1" d="M35.8679 243.87C37.363 244.038 38.8213 244.502 40.3217 244.597C41.8221 244.692 43.4805 244.328 44.4228 243.158C44.8631 242.48 45.2622 241.775 45.6179 241.049C46.0287 240.411 46.5889 239.882 47.2499 239.51C47.67 240.332 47.9098 241.236 47.9533 242.159C47.9967 243.082 47.8429 244.003 47.502 244.862C47.1611 245.721 46.641 246.496 45.9765 247.138C45.3121 247.779 44.5185 248.27 43.649 248.58C42.7795 248.889 41.8541 249.009 40.9346 248.931C40.0151 248.853 39.1228 248.58 38.3174 248.129C37.512 247.678 36.812 247.06 36.2643 246.316C35.7165 245.573 35.3337 244.721 35.1414 243.817C35.3835 243.827 35.6257 243.843 35.8679 243.87Z" fill="black"/>
<path opacity="0.1" d="M34.0252 262.986C35.1421 263.037 36.2533 262.799 37.251 262.293C38.2487 261.788 39.0989 261.033 39.7193 260.101C40.3396 259.17 40.7089 258.093 40.7914 256.977C40.8739 255.86 40.6667 254.741 40.19 253.728C39.6748 254.074 39.2314 254.516 38.8844 255.03C38.4995 255.771 38.0706 256.487 37.5998 257.176C36.5943 258.368 34.8675 258.758 33.3039 258.684C31.7403 258.61 30.2294 258.157 28.6711 258.025C28.4552 258.025 28.2341 257.988 28.0182 257.983C28.3397 259.358 29.1001 260.59 30.1842 261.493C31.2682 262.396 32.6167 262.92 34.0252 262.986Z" fill="black"/>
<path opacity="0.1" d="M49.756 273.467C50.8637 273.521 51.9668 273.289 52.9595 272.794C53.9522 272.299 54.8013 271.557 55.4254 270.639C56.0495 269.721 56.4276 268.657 56.5236 267.551C56.6195 266.444 56.4301 265.332 55.9734 264.32C55.4422 264.674 54.9786 265.12 54.6046 265.638C54.0782 266.35 53.7886 267.172 53.199 267.826C52.104 269.049 50.2666 269.476 48.6082 269.439C46.9499 269.402 45.4495 269.007 43.8701 268.885C44.2609 270.163 45.036 271.288 46.0894 272.108C47.1428 272.928 48.4233 273.403 49.756 273.467Z" fill="black"/>
<path opacity="0.1" d="M46.5547 286.072C47.3276 287.52 48.6195 288.621 50.1704 289.154C51.7213 289.686 53.4161 289.611 54.9138 288.943C56.4116 288.275 57.6011 287.064 58.243 285.553C58.8849 284.042 58.9316 282.344 58.3737 280.8C57.8387 281.149 57.3596 281.578 56.9523 282.07C56.331 282.824 55.8993 283.652 55.2149 284.379C53.8882 285.682 51.7508 286.214 49.8451 286.267C48.7454 286.266 47.6468 286.201 46.5547 286.072V286.072Z" fill="black"/>
<path d="M325.352 224.205C325.345 223.397 325.528 222.598 325.886 221.873C326.243 221.148 326.765 220.516 327.411 220.03C327.419 218.601 327.931 217.22 328.856 216.132C329.782 215.044 331.062 214.318 332.47 214.083C332.687 213.044 333.174 212.081 333.881 211.29C334.588 210.498 335.49 209.907 336.497 209.576V209.576C336.742 209.499 336.992 209.441 337.245 209.402H337.319H337.45H337.555H337.671H337.813H338.135C339.534 209.434 340.876 209.961 341.924 210.889C342.972 211.817 343.659 213.087 343.862 214.473C345.71 214.046 347.4 214.6 347.711 215.77C347.789 216.081 347.77 216.409 347.658 216.709C347.342 217.616 346.316 218.485 344.942 218.912L344.763 218.965L344.494 219.034H344.436C344.73 219.659 344.881 220.341 344.879 221.032C344.883 221.879 344.654 222.712 344.216 223.437C343.779 224.162 343.15 224.753 342.399 225.144L342.52 225.218C342.691 225.374 342.828 225.564 342.92 225.777C343.252 226.365 343.512 226.992 343.694 227.643C343.826 228.202 343.847 228.782 344.01 229.335C344.315 230.353 345.094 231.212 345.184 232.272C345.226 232.746 345.147 233.326 345.484 233.632C345.567 233.704 345.657 233.767 345.752 233.822C345.986 233.987 346.184 234.196 346.337 234.438C346.438 234.658 346.577 234.858 346.747 235.029C347.053 235.255 347.553 235.234 347.7 235.588C347.848 235.941 347.463 236.357 347.553 236.742C347.642 237.127 347.969 237.201 348.206 237.417C348.481 237.714 348.675 238.077 348.769 238.471C349.267 238.567 349.78 238.551 350.272 238.425C350.763 238.299 351.221 238.067 351.612 237.744C351.478 238.084 351.379 238.438 351.317 238.798C351.775 238.448 352.295 238.187 352.849 238.029C353.473 237.745 354.029 237.331 354.481 236.816L353.607 236.695L357.466 230.795L358.609 230.558L357.587 232.525C357.673 232.564 357.748 232.621 357.808 232.693C357.868 232.765 357.912 232.85 357.935 232.941C357.989 233.16 358.002 233.387 357.972 233.611C357.919 234.143 357.831 234.671 357.708 235.192L357.414 236.573C357.387 236.7 357.356 236.832 357.319 236.958C357.704 236.939 358.09 236.982 358.461 237.085C359.227 236.8 360.024 236.61 360.836 236.521C361.009 236.485 361.188 236.485 361.362 236.521C361.559 236.614 361.73 236.753 361.862 236.927C362.527 237.699 363.117 238.532 363.626 239.415C365.732 243.032 368.474 246.189 371.07 249.458C372.86 250.186 374.666 250.876 376.471 251.567L380.357 253.054C381.114 253.398 381.936 253.577 382.768 253.581C383.136 253.581 383.594 253.502 383.821 253.818C383.922 253.983 384.002 254.16 384.058 254.345L384.458 254.387C384.642 253.754 384.96 253.168 385.39 252.669C385.484 252.685 385.574 252.724 385.65 252.783C385.726 252.842 385.787 252.918 385.827 253.006C385.921 253.18 385.979 253.37 386.09 253.533C386.295 253.839 386.658 253.987 386.916 254.245C387.174 254.503 387.338 254.904 387.622 255.168C388.009 255.455 388.465 255.636 388.943 255.695C389.665 255.863 390.36 256.128 391.012 256.48C391.251 256.63 391.507 256.749 391.776 256.834C392.072 256.891 392.376 256.902 392.676 256.865L394.729 256.712C394.913 256.689 395.1 256.698 395.282 256.739C395.488 256.823 395.662 256.97 395.779 257.16C395.897 257.349 395.951 257.571 395.935 257.793C395.908 258.016 395.837 258.232 395.724 258.427C395.612 258.622 395.462 258.792 395.282 258.927C394.927 259.189 394.532 259.394 394.113 259.533C392.336 260.225 390.505 260.769 388.638 261.157V261.573C387.332 262.232 385.889 262.576 384.426 262.575C384.318 262.582 384.209 262.562 384.11 262.517C383.976 262.416 383.882 262.27 383.847 262.105C383.41 260.798 383.135 259.442 383.026 258.067V258.067C382.769 258.05 382.517 257.986 382.284 257.877C381.578 257.682 380.873 258.167 380.141 258.246C379.241 258.347 378.409 257.819 377.556 257.498L377.187 257.377C377.43 257.689 377.718 257.965 378.04 258.194C378.393 258.447 378.788 258.637 379.13 258.9C379.42 259.163 379.73 259.403 380.057 259.617C380.287 259.724 380.525 259.816 380.767 259.891C381.126 260.025 381.467 260.202 381.783 260.418C382.063 260.586 382.3 260.817 382.473 261.093C382.56 261.235 382.61 261.395 382.62 261.561C382.63 261.726 382.6 261.891 382.531 262.042C382.458 262.165 382.36 262.271 382.243 262.353C382.126 262.435 381.992 262.491 381.852 262.517C381.574 262.559 381.292 262.559 381.015 262.517C379.899 262.432 378.788 262.332 377.677 262.232C377.207 262.202 376.741 262.135 376.282 262.032C376.04 261.974 375.798 261.895 375.555 261.826C375.14 261.721 374.715 261.657 374.287 261.636C374.163 261.627 374.038 261.639 373.918 261.673C373.66 261.758 373.476 262.021 373.213 262.074C373.034 262.096 372.853 262.073 372.686 262.005C371.875 261.83 371.047 261.742 370.217 261.742C369.854 261.742 369.427 261.652 369.259 261.315C369.09 260.977 369.396 260.434 369.533 259.986C369.603 259.7 369.642 259.406 369.648 259.111C369.712 258.385 369.92 257.679 370.259 257.034C370.442 256.733 370.596 256.415 370.717 256.085C369.125 255.479 367.602 254.705 366.174 253.776C365.392 253.208 364.514 252.785 363.584 252.526C362.484 252.395 361.37 252.525 360.33 252.906C357.799 253.64 355.309 254.51 352.87 255.51C351.707 255.99 350.549 256.496 349.348 256.86C348.998 257.33 348.575 257.741 348.095 258.078C347.266 258.545 346.335 258.8 345.384 258.821C344.115 258.937 342.841 258.985 341.567 258.963C340.592 259.006 339.62 258.826 338.724 258.436C338.511 258.329 338.311 258.197 338.129 258.041C337.786 258.07 337.439 258.023 337.116 257.904C336.792 257.785 336.498 257.596 336.255 257.35C335.565 256.758 335.068 255.972 334.828 255.094C334.518 253.892 334.755 252.458 334.018 251.498C333.823 251.235 333.565 251.024 333.37 250.76C333.134 250.399 333.017 249.974 333.033 249.542C333.025 249.525 333.014 249.51 333.002 249.495C332.84 249.108 332.734 248.7 332.686 248.282C332.595 247.955 332.481 247.634 332.344 247.323C331.969 246.393 331.642 245.445 331.364 244.481C331.174 243.841 331.023 243.189 330.912 242.531C330.833 242.004 330.785 241.476 330.743 240.949C330.687 240.118 330.526 239.298 330.264 238.508C329.605 236.628 329.232 234.659 329.158 232.667V232.551C328.188 232.439 327.295 231.969 326.654 231.231C326.013 230.494 325.671 229.543 325.694 228.565C325.694 227.978 325.818 227.398 326.058 226.863C325.592 226.055 325.348 225.138 325.352 224.205ZM344.189 247.123C344.131 247.328 344.063 247.529 343.994 247.729C344.305 247.428 344.605 247.117 344.915 246.812C344.794 246.854 344.668 246.891 344.552 246.938C344.43 246.988 344.314 247.05 344.205 247.123H344.189ZM345.679 246.11C347.5 244.529 349.606 243.3 351.47 241.766C350.454 242.267 349.464 242.852 348.485 243.411C347.323 244.075 346.146 244.713 344.952 245.325C345.148 245.631 345.4 245.898 345.695 246.11H345.679ZM344.905 242.125L344.815 242.035C344.815 242.262 344.815 242.467 344.815 242.663L345.305 242.494C345.169 242.379 345.041 242.256 344.921 242.125H344.905ZM360.925 246.395C360.178 245.548 359.528 244.62 358.988 243.627C358.266 244.887 357.092 245.799 356.097 246.859C357.703 246.653 359.314 246.479 360.925 246.395Z" fill="url(#paint1_linear_654:2)"/>
<path d="M358.335 231.043L357.187 231.275L353.276 237.069L354.997 237.301L358.335 231.043Z" fill="#2F2E41"/>
<path d="M386.164 254.546C385.852 255.568 385.469 256.567 385.016 257.535C383.72 257.26 382.444 256.896 381.199 256.443C381.445 256.078 381.71 255.726 381.994 255.389C382.303 255.052 382.668 254.772 383.073 254.561C383.505 254.464 383.953 254.464 384.384 254.561C384.974 254.546 385.569 254.556 386.164 254.546Z" fill="#FBBEBE"/>
<path d="M383.068 256.09C383.38 255.951 383.657 255.746 383.882 255.489C384.108 255.233 384.275 254.931 384.374 254.604C384.574 253.947 384.914 253.341 385.369 252.827C385.465 252.84 385.556 252.877 385.633 252.936C385.71 252.994 385.772 253.071 385.811 253.159C385.906 253.328 385.964 253.518 386.069 253.686C386.28 253.987 386.648 254.134 386.911 254.387C387.175 254.64 387.333 255.036 387.617 255.294C388.008 255.583 388.467 255.764 388.949 255.821C389.681 255.987 390.389 256.247 391.055 256.596C391.298 256.742 391.558 256.859 391.828 256.944C392.129 256.989 392.434 256.989 392.734 256.944L394.808 256.797C394.983 256.768 395.16 256.768 395.335 256.797C395.546 256.873 395.726 257.019 395.846 257.21C395.965 257.401 396.017 257.627 395.993 257.851C395.968 258.073 395.897 258.288 395.783 258.481C395.67 258.673 395.517 258.84 395.335 258.969C394.974 259.228 394.577 259.43 394.155 259.57C392.349 260.251 390.49 260.78 388.596 261.151V261.563C387.277 262.211 385.827 262.548 384.358 262.548C384.25 262.555 384.142 262.537 384.042 262.496C383.908 262.395 383.814 262.249 383.779 262.084C383.28 260.628 382.987 259.109 382.91 257.572C382.876 257.181 382.907 256.787 383 256.407C383.116 256.032 382.726 256.19 383.084 256.043" fill="#2F2E41"/>
<path d="M343.289 248.261C349.438 248.63 355.513 246.827 361.673 246.638C362.437 246.587 363.205 246.635 363.957 246.78C364.741 246.993 365.5 247.288 366.221 247.66C369.522 249.2 372.939 250.476 376.35 251.746L380.273 253.206C381.035 253.551 381.862 253.731 382.699 253.734C383.073 253.734 383.531 253.655 383.752 253.966C384.389 254.915 384.089 256.301 383.668 257.366C383.531 257.709 383.3 258.083 382.931 258.12C382.673 258.102 382.419 258.038 382.184 257.93C381.473 257.74 380.762 258.22 380.025 258.299C379.12 258.394 378.277 257.877 377.419 257.561C375.998 257.034 374.45 257.034 372.955 256.802C370.454 256.385 368.132 255.22 365.963 253.897C365.175 253.334 364.292 252.917 363.357 252.663C362.25 252.533 361.127 252.661 360.077 253.038C357.526 253.759 355.015 254.614 352.554 255.6C351.275 256.157 349.964 256.638 348.627 257.039C345.71 257.803 342.625 257.619 339.819 256.512C338.835 256.122 337.766 255.458 337.713 254.372C337.677 253.765 338.15 253.233 338.461 252.711C338.661 252.379 338.866 252.047 339.082 251.725C340.135 250.196 341.42 248.151 343.289 248.261Z" fill="#2F2E41"/>
<path opacity="0.1" d="M343.289 248.261C349.438 248.63 355.513 246.827 361.673 246.638C362.437 246.587 363.205 246.635 363.957 246.78C364.741 246.993 365.5 247.288 366.221 247.66C369.522 249.2 372.939 250.476 376.35 251.746L380.273 253.206C381.035 253.551 381.862 253.731 382.699 253.734C383.073 253.734 383.531 253.655 383.752 253.966C384.389 254.915 384.089 256.301 383.668 257.366C383.531 257.709 383.3 258.083 382.931 258.12C382.673 258.102 382.419 258.038 382.184 257.93C381.473 257.74 380.762 258.22 380.025 258.299C379.12 258.394 378.277 257.877 377.419 257.561C375.998 257.034 374.45 257.034 372.955 256.802C370.454 256.385 368.132 255.22 365.963 253.897C365.175 253.334 364.292 252.917 363.357 252.663C362.25 252.533 361.127 252.661 360.077 253.038C357.526 253.759 355.015 254.614 352.554 255.6C351.275 256.157 349.964 256.638 348.627 257.039C345.71 257.803 342.625 257.619 339.819 256.512C338.835 256.122 337.766 255.458 337.713 254.372C337.677 253.765 338.15 253.233 338.461 252.711C338.661 252.379 338.866 252.047 339.082 251.725C340.135 250.196 341.42 248.151 343.289 248.261Z" fill="black"/>
<path d="M374.355 254.83C373.393 255.157 372.423 255.459 371.444 255.737C370.917 254.836 369.864 254.208 369.638 253.175C369.625 253.13 369.625 253.083 369.638 253.038C369.664 252.994 369.702 252.959 369.748 252.938C370.452 252.551 371.232 252.322 372.033 252.268C372.665 252.231 372.955 252.89 373.239 253.354C373.349 253.56 374.097 254.93 374.355 254.83Z" fill="#FBBEBE"/>
<path d="M373.007 254.187C373.295 254.138 373.57 254.03 373.813 253.87C374.057 253.709 374.265 253.499 374.424 253.254C374.555 253.017 374.703 252.695 374.976 252.727C375.25 252.758 375.34 253.043 375.398 253.291C375.58 254.225 375.846 255.141 376.193 256.027C376.54 256.918 377.129 257.694 377.893 258.268C378.251 258.515 378.646 258.7 378.999 258.963C379.291 259.223 379.602 259.459 379.93 259.67C380.163 259.774 380.402 259.862 380.646 259.933C381.006 260.069 381.349 260.246 381.668 260.461C381.952 260.624 382.192 260.854 382.368 261.13C382.455 261.269 382.505 261.427 382.515 261.59C382.524 261.753 382.491 261.916 382.421 262.063C382.347 262.185 382.248 262.289 382.131 262.369C382.014 262.449 381.881 262.503 381.741 262.527C381.46 262.569 381.175 262.569 380.894 262.527C379.772 262.448 378.651 262.348 377.53 262.248C377.057 262.217 376.587 262.152 376.124 262.053L375.392 261.852C374.974 261.742 374.545 261.678 374.113 261.663C373.987 261.651 373.86 261.664 373.739 261.7C373.481 261.784 373.297 262.042 373.028 262.095C372.85 262.112 372.67 262.089 372.502 262.026C371.684 261.851 370.849 261.764 370.012 261.768C369.643 261.768 369.212 261.673 369.043 261.346C368.833 260.935 369.18 260.477 369.322 260.034C369.39 259.752 369.429 259.464 369.438 259.174C369.501 258.457 369.711 257.761 370.054 257.129C370.338 256.602 370.728 256.022 370.528 255.463C370.428 255.285 370.364 255.09 370.338 254.888C370.417 253.981 372.491 254.303 373.007 254.187Z" fill="#2F2E41"/>
<path d="M352.507 238.382C353.598 237.903 354.473 237.035 354.96 235.946C355.06 235.714 355.145 235.466 355.245 235.234C355.566 234.449 356.067 233.75 356.708 233.194C356.776 233.122 356.857 233.065 356.948 233.026C357.038 232.987 357.136 232.967 357.235 232.968C357.332 232.997 357.421 233.052 357.49 233.127C357.559 233.202 357.608 233.295 357.629 233.395C357.688 233.609 357.703 233.833 357.672 234.054C357.618 234.572 357.53 235.086 357.408 235.593L357.108 236.953C357.068 237.161 357.007 237.364 356.924 237.559C356.796 237.787 356.626 237.989 356.424 238.155C356.15 238.408 355.871 238.651 355.592 238.893C355.431 239.034 355.254 239.156 355.066 239.257C354.772 239.397 354.457 239.49 354.134 239.531C352.878 239.695 351.679 240.158 350.638 240.881C350.638 240.881 350.638 239.969 350.638 239.869C350.651 239.604 350.743 239.348 350.901 239.136C351.383 238.784 351.929 238.528 352.507 238.382V238.382Z" fill="#FBBEBE"/>
<path opacity="0.1" d="M352.507 238.382C353.598 237.903 354.473 237.035 354.96 235.946C355.06 235.714 355.145 235.466 355.245 235.234C355.566 234.449 356.067 233.75 356.708 233.194C356.776 233.122 356.857 233.065 356.948 233.026C357.038 232.987 357.136 232.967 357.235 232.968C357.332 232.997 357.421 233.052 357.49 233.127C357.559 233.202 357.608 233.295 357.629 233.395C357.688 233.609 357.703 233.833 357.672 234.054C357.618 234.572 357.53 235.086 357.408 235.593L357.108 236.953C357.068 237.161 357.007 237.364 356.924 237.559C356.796 237.787 356.626 237.989 356.424 238.155C356.15 238.408 355.871 238.651 355.592 238.893C355.431 239.034 355.254 239.156 355.066 239.257C354.772 239.397 354.457 239.49 354.134 239.531C352.878 239.695 351.679 240.158 350.638 240.881C350.638 240.881 350.638 239.969 350.638 239.869C350.651 239.604 350.743 239.348 350.901 239.136C351.383 238.784 351.929 238.528 352.507 238.382V238.382Z" fill="black"/>
<path d="M339.988 227.975C339.162 227.975 338.493 227.3 338.493 226.467C338.493 225.635 339.162 224.959 339.988 224.959C340.813 224.959 341.483 225.635 341.483 226.467C341.483 227.3 340.813 227.975 339.988 227.975Z" fill="#2F2E41"/>
<path d="M340.914 225.56C341.315 225.464 341.736 225.524 342.094 225.729C342.266 225.883 342.404 226.071 342.499 226.283C342.834 226.859 343.095 227.476 343.278 228.117C343.41 228.644 343.431 229.24 343.599 229.783C343.905 230.785 344.689 231.634 344.779 232.677C344.821 233.147 344.742 233.695 345.084 234.011C345.168 234.084 345.257 234.149 345.352 234.206C345.589 234.365 345.79 234.571 345.942 234.813C346.045 235.028 346.186 235.222 346.358 235.387C346.663 235.614 347.169 235.593 347.316 235.914C347.463 236.236 347.079 236.674 347.169 237.053C347.258 237.433 347.59 237.507 347.827 237.717C348.106 238.013 348.302 238.376 348.395 238.772C348.896 238.868 349.411 238.855 349.906 238.732C350.4 238.609 350.862 238.38 351.259 238.06C350.912 239.117 350.76 240.228 350.812 241.339C350.786 241.517 350.795 241.698 350.841 241.872C350.886 242.046 350.966 242.209 351.075 242.351C349.887 242.44 348.711 242.645 347.564 242.963C347.066 243.129 346.529 243.129 346.032 242.963C345.765 242.82 345.526 242.631 345.326 242.404C344.694 241.761 344.031 241.06 343.878 240.169C343.84 239.665 343.832 239.16 343.852 238.656C343.792 238.03 343.663 237.413 343.468 236.816C343.134 235.576 342.911 234.31 342.799 233.031C342.731 232.24 342.046 231.607 341.688 230.922C341.014 229.588 340.319 228.202 340.272 226.704C340.251 226.219 340.419 225.613 340.914 225.56Z" fill="#2F2E41"/>
<path opacity="0.1" d="M340.914 225.56C341.315 225.464 341.736 225.524 342.094 225.729C342.266 225.883 342.404 226.071 342.499 226.283C342.834 226.859 343.095 227.476 343.278 228.117C343.41 228.644 343.431 229.24 343.599 229.783C343.905 230.785 344.689 231.634 344.779 232.677C344.821 233.147 344.742 233.695 345.084 234.011C345.168 234.084 345.257 234.149 345.352 234.206C345.589 234.365 345.79 234.571 345.942 234.813C346.045 235.028 346.186 235.222 346.358 235.387C346.663 235.614 347.169 235.593 347.316 235.914C347.463 236.236 347.079 236.674 347.169 237.053C347.258 237.433 347.59 237.507 347.827 237.717C348.106 238.013 348.302 238.376 348.395 238.772C348.896 238.868 349.411 238.855 349.906 238.732C350.4 238.609 350.862 238.38 351.259 238.06C350.912 239.117 350.76 240.228 350.812 241.339C350.786 241.517 350.795 241.698 350.841 241.872C350.886 242.046 350.966 242.209 351.075 242.351C349.887 242.44 348.711 242.645 347.564 242.963C347.066 243.129 346.529 243.129 346.032 242.963C345.765 242.82 345.526 242.631 345.326 242.404C344.694 241.761 344.031 241.06 343.878 240.169C343.84 239.665 343.832 239.16 343.852 238.656C343.792 238.03 343.663 237.413 343.468 236.816C343.134 235.576 342.911 234.31 342.799 233.031C342.731 232.24 342.046 231.607 341.688 230.922C341.014 229.588 340.319 228.202 340.272 226.704C340.251 226.219 340.419 225.613 340.914 225.56Z" fill="black"/>
<path d="M342.315 249.558C343.594 248.947 344.531 247.813 345.568 246.838C347.543 244.977 349.959 243.675 352.039 241.919C353.418 240.765 354.671 239.42 356.161 238.45C357.495 237.603 359.007 237.075 360.578 236.906C360.751 236.866 360.931 236.866 361.104 236.906C361.303 236.99 361.476 237.127 361.604 237.301C362.276 238.06 362.873 238.88 363.389 239.753C366.021 244.234 369.765 247.998 372.865 252.163C372.937 252.249 372.989 252.35 373.018 252.458C373.031 252.619 372.99 252.781 372.902 252.917L372.271 254.15C371.918 254.846 371.349 255.653 370.591 255.516C370.25 255.417 369.944 255.221 369.712 254.952L366.88 252.236L363.91 249.395C362.173 247.734 360.404 246.031 359.267 243.902C358.383 245.441 356.808 246.448 355.734 247.856C355.324 248.383 354.987 248.978 354.618 249.548C354.034 250.455 353.365 251.309 352.702 252.184L349.296 256.533C348.864 257.147 348.33 257.682 347.716 258.115C346.877 258.573 345.94 258.824 344.984 258.848C343.705 258.962 342.42 259.007 341.136 258.985C340.152 259.024 339.172 258.844 338.267 258.457C337.815 258.259 337.43 257.936 337.155 257.526C336.88 257.116 336.727 256.637 336.713 256.143C336.766 255.632 336.933 255.14 337.203 254.704C338.435 252.505 340.025 250.65 342.315 249.558Z" fill="#2F2E41"/>
<path d="M339.066 228.671C338.43 228.671 337.913 228.151 337.913 227.511C337.913 226.87 338.43 226.351 339.066 226.351C339.703 226.351 340.219 226.87 340.219 227.511C340.219 228.151 339.703 228.671 339.066 228.671Z" fill="#E8E8F0"/>
<path d="M339.319 226.641C339.062 227.159 339.017 227.756 339.193 228.307C339.374 228.848 339.624 229.363 339.935 229.841C340.203 230.334 340.526 230.794 340.898 231.212C339.119 231.296 337.397 230.6 335.834 229.757C334.57 229.077 333.312 228.239 332.638 226.968C332.839 227.016 333.048 227.021 333.251 226.983C333.455 226.945 333.647 226.864 333.818 226.747C334.157 226.513 334.46 226.23 334.718 225.908L335.608 224.907C335.809 224.686 335.986 224.444 336.134 224.184C336.33 223.829 336.412 223.423 336.371 223.019C336.726 223.39 337.121 223.719 337.55 224C338.187 224.416 338.887 224.717 339.53 225.128C339.751 225.276 340.256 225.508 340.125 225.803C339.993 226.098 339.498 226.325 339.319 226.641Z" fill="#FBBEBE"/>
<path opacity="0.1" d="M339.319 226.641C339.062 227.159 339.017 227.756 339.193 228.307C339.374 228.848 339.624 229.363 339.935 229.841C340.203 230.334 340.526 230.794 340.898 231.212C339.119 231.296 337.397 230.6 335.834 229.757C334.57 229.077 333.312 228.239 332.638 226.968C332.839 227.016 333.048 227.021 333.251 226.983C333.455 226.945 333.647 226.864 333.818 226.747C334.157 226.513 334.46 226.23 334.718 225.908L335.608 224.907C335.809 224.686 335.986 224.444 336.134 224.184C336.33 223.829 336.412 223.423 336.371 223.019C336.726 223.39 337.121 223.719 337.55 224C338.187 224.416 338.887 224.717 339.53 225.128C339.751 225.276 340.256 225.508 340.125 225.803C339.993 226.098 339.498 226.325 339.319 226.641Z" fill="black"/>
<path d="M339.298 226.815C339.478 227.069 339.575 227.373 339.575 227.685C339.575 227.997 339.478 228.301 339.298 228.555C339.245 228.618 339.056 229.013 338.977 229.019C338.938 229.015 338.901 229.004 338.866 228.986C338.832 228.968 338.801 228.943 338.777 228.913C338.372 228.491 337.996 228.041 337.65 227.569C337.298 227.097 336.791 226.765 336.218 226.63C335.509 226.603 334.812 226.821 334.244 227.247C333.98 227.368 333.747 227.548 333.565 227.774C333.438 228.007 333.362 228.264 333.344 228.528C333.172 230.12 333.105 231.72 333.144 233.321C333.113 234.476 333.189 235.632 333.37 236.774C333.486 237.359 333.654 237.933 333.733 238.529C333.795 239.054 333.82 239.583 333.807 240.111V242.314C333.821 242.719 333.793 243.123 333.723 243.522C333.618 244.001 333.391 244.45 333.238 244.919C333.081 245.458 332.974 246.01 332.917 246.569L332.617 248.846C332.522 249.563 332.449 250.349 332.886 250.955C333.081 251.214 333.338 251.424 333.539 251.683C334.281 252.653 334.065 254.039 334.355 255.225C334.598 256.094 335.102 256.866 335.797 257.44C336.045 257.685 336.344 257.873 336.672 257.991C337 258.108 337.35 258.152 337.698 258.12C338.624 257.946 339.177 256.981 339.43 256.069C339.682 255.157 339.772 254.166 340.319 253.396C340.822 252.813 341.416 252.317 342.078 251.925C342.748 251.528 343.239 250.888 343.452 250.138C343.51 249.806 343.452 249.463 343.51 249.126C343.559 248.701 343.722 248.298 343.98 247.957C344.238 247.617 344.583 247.352 344.979 247.191C345.452 247.007 346.031 246.938 346.305 246.506C345.627 246.081 345.133 245.417 344.921 244.645C344.711 243.878 344.598 243.088 344.584 242.293L344.426 239.657C344.352 238.471 344.32 237.301 343.799 236.236C343.568 235.761 343.273 235.313 343.036 234.844C342.715 234.185 342.442 233.503 342.22 232.804C341.841 231.718 341.462 230.632 341.125 229.535C340.993 229.003 340.792 228.491 340.525 228.012C340.24 227.516 339.83 226.92 339.298 226.815Z" fill="#E8E8F0"/>
<path d="M345.168 244.023H344.468L344.32 242.968C344.301 242.757 344.252 242.549 344.173 242.351C344.057 242.142 343.922 241.944 343.768 241.761C343.083 240.786 343.131 239.494 342.962 238.308C342.657 236.741 342.14 235.222 341.425 233.795L340.067 230.764C339.943 230.516 339.844 230.256 339.772 229.989C339.715 229.693 339.687 229.393 339.688 229.092C339.688 228.623 339.54 226.915 339.524 226.457C339.524 226.283 339.909 226.377 339.988 226.225C340.156 225.887 340.388 226.799 340.709 227C341.011 227.23 341.23 227.552 341.335 227.917C341.63 228.676 341.809 229.498 342.083 230.252C342.321 231.039 342.758 231.751 343.352 232.319C343.631 232.561 343.952 232.756 344.215 233.02C345.057 233.853 345.142 235.176 345.168 236.368C345.189 237.095 345.326 244.023 345.168 244.023Z" fill="#2F2E41"/>
<path d="M335.092 225.555C335.417 225.725 335.699 225.969 335.916 226.266C336.132 226.563 336.277 226.906 336.34 227.268C336.46 227.995 336.672 228.704 336.971 229.377C337.824 230.864 339.998 231.296 340.604 232.904C340.756 233.445 340.837 234.003 340.846 234.565C340.951 235.719 341.33 236.832 341.446 237.981C341.504 238.876 341.483 239.773 341.383 240.664L340.62 249.743C340.474 251.078 340.55 252.429 340.846 253.739C340.064 253.851 339.266 253.718 338.561 253.359C337.85 253.032 337.198 252.584 336.508 252.205C335.329 251.551 334.023 251.092 332.986 250.222C332.8 250.074 332.64 249.896 332.512 249.695C332.354 249.314 332.247 248.913 332.196 248.504C332.107 248.183 331.992 247.869 331.854 247.565C331.474 246.649 331.144 245.713 330.864 244.761C330.674 244.131 330.523 243.49 330.412 242.842C330.327 242.314 330.28 241.787 330.238 241.26C330.183 240.443 330.02 239.636 329.754 238.861C329.093 237.01 328.718 235.069 328.643 233.104C328.622 232.822 328.642 232.538 328.701 232.261C328.816 231.922 328.972 231.598 329.164 231.296C329.48 230.7 329.69 230.047 329.964 229.44C330.711 228.105 331.781 226.979 333.075 226.166C333.686 225.75 334.402 225.307 335.092 225.555Z" fill="#2F2E41"/>
<path d="M350.996 240.369C351.536 240.085 352.026 239.713 352.444 239.267C352.633 239.046 352.791 238.798 352.97 238.577C353.458 238.051 354.093 237.683 354.792 237.522C355.483 237.37 356.19 237.301 356.898 237.317C357.373 237.285 357.849 237.342 358.303 237.485C358.53 237.561 358.733 237.693 358.896 237.868C359.059 238.043 359.175 238.256 359.235 238.487C359.254 238.774 359.199 239.06 359.074 239.319C358.95 239.578 358.76 239.8 358.524 239.963C358.113 240.301 357.628 240.536 357.108 240.649C356.685 240.724 356.258 240.775 355.829 240.801C353.312 241.065 351.064 242.436 348.859 243.685C346.921 244.789 344.945 245.815 342.931 246.764C342.853 246.161 342.819 245.553 342.831 244.945C342.831 244.492 342.867 243.796 343.294 243.527C343.9 243.273 344.532 243.084 345.179 242.963C346.478 242.538 347.746 242.024 348.974 241.424C349.669 241.123 350.338 240.754 350.996 240.369Z" fill="#FBBEBE"/>
<path d="M339.988 226.125C337.51 226.125 335.502 224.102 335.502 221.606C335.502 219.111 337.51 217.088 339.988 217.088C342.465 217.088 344.473 219.111 344.473 221.606C344.473 224.102 342.465 226.125 339.988 226.125Z" fill="#FBBEBE"/>
<path d="M333.813 230.674C334.171 231.178 334.463 231.725 334.681 232.303C335.208 233.442 336.103 234.412 336.54 235.619C336.977 236.827 336.982 238.376 337.882 239.362C338.062 239.513 338.199 239.71 338.277 239.932C338.281 240.07 338.295 240.207 338.319 240.343C338.451 240.701 339.035 240.717 339.146 241.086C339.177 241.192 339.146 241.308 339.198 241.413C339.288 241.65 339.604 241.687 339.809 241.83C340.246 242.125 340.156 242.81 340.467 243.237C340.603 243.396 340.778 243.517 340.975 243.586C341.172 243.655 341.383 243.672 341.588 243.633C341.997 243.549 342.39 243.402 342.752 243.195C342.882 243.124 343.025 243.079 343.173 243.063C343.348 243.069 343.517 243.128 343.657 243.232C344.054 243.525 344.373 243.912 344.584 244.358C344.795 244.804 344.893 245.296 344.868 245.789C344.808 246.777 344.573 247.746 344.173 248.652C344.129 248.808 344.052 248.954 343.947 249.079C343.79 249.202 343.6 249.276 343.402 249.291C343.203 249.306 343.004 249.261 342.831 249.163C342.487 248.959 342.122 248.794 341.741 248.673C341.046 248.546 340.367 249.026 339.662 248.984C339.148 248.908 338.664 248.695 338.261 248.367C337.553 247.944 336.917 247.41 336.377 246.785C336.071 246.379 335.85 245.921 335.576 245.488C335.228 244.963 334.85 244.458 334.444 243.975L331.854 240.812C331.597 240.512 331.365 240.191 331.159 239.853C330.929 239.391 330.753 238.905 330.633 238.403C330.356 237.567 330.179 236.702 330.106 235.825C330.09 235.1 330.154 234.375 330.296 233.663C330.375 232.955 330.552 232.261 330.822 231.602C331.386 230.411 332.754 229.441 333.813 230.674Z" fill="#2F2E41"/>
<path d="M324.799 224.78C324.795 223.979 324.981 223.189 325.342 222.474C325.703 221.759 326.227 221.14 326.873 220.668C326.895 219.245 327.419 217.876 328.353 216.804C329.287 215.731 330.57 215.025 331.975 214.811C332.245 213.462 332.982 212.252 334.056 211.394C335.131 210.536 336.473 210.087 337.847 210.124C339.22 210.161 340.536 210.683 341.563 211.597C342.589 212.512 343.26 213.76 343.457 215.122C345.321 214.7 347.026 215.248 347.337 216.398C347.648 217.547 346.331 219.034 344.368 219.561C343.748 219.734 343.103 219.799 342.462 219.751C342.005 220.425 341.412 220.997 340.721 221.428C340.03 221.859 339.256 222.141 338.45 222.255C338.211 223.342 337.675 224.34 336.902 225.139C336.128 225.938 335.148 226.506 334.07 226.778C333.77 227.498 333.307 228.139 332.717 228.65C332.717 228.792 332.717 228.94 332.717 229.087C332.717 229.586 332.619 230.081 332.428 230.542C332.237 231.003 331.958 231.422 331.605 231.775C331.253 232.128 330.834 232.408 330.374 232.599C329.913 232.79 329.42 232.888 328.921 232.888C328.423 232.888 327.929 232.79 327.469 232.599C327.008 232.408 326.59 232.128 326.237 231.775C325.885 231.422 325.605 231.003 325.415 230.542C325.224 230.081 325.126 229.586 325.126 229.087C325.125 228.507 325.249 227.934 325.489 227.405C325.025 226.609 324.787 225.702 324.799 224.78V224.78Z" fill="#F86D70"/>
<path opacity="0.1" d="M346.074 216.64C345.763 215.491 344.057 214.943 342.194 215.364C341.972 213.981 341.27 212.721 340.21 211.806C339.15 210.891 337.802 210.381 336.403 210.367H336.018C336.554 210.203 337.111 210.12 337.671 210.119C339.07 210.134 340.419 210.643 341.479 211.558C342.539 212.473 343.241 213.733 343.462 215.117C345.326 214.695 347.032 215.243 347.342 216.393C347.653 217.542 346.337 219.028 344.373 219.556C344.005 219.658 343.628 219.723 343.246 219.751C345.126 219.187 346.384 217.816 346.074 216.64Z" fill="black"/>
<path opacity="0.1" d="M331.475 229.309C331.483 229.165 331.483 229.02 331.475 228.876C332.068 228.369 332.531 227.727 332.828 227.005C333.907 226.734 334.889 226.166 335.662 225.366C336.436 224.566 336.972 223.565 337.208 222.476C338.015 222.365 338.789 222.085 339.481 221.654C340.173 221.224 340.767 220.652 341.225 219.977C341.599 220.009 341.975 219.998 342.346 219.946C341.885 220.567 341.306 221.09 340.642 221.485C339.977 221.881 339.242 222.141 338.477 222.25C338.238 223.336 337.702 224.335 336.928 225.134C336.154 225.933 335.174 226.5 334.097 226.773C333.797 227.493 333.333 228.134 332.744 228.644C332.744 228.787 332.744 228.934 332.744 229.082C332.76 230.104 332.373 231.091 331.666 231.828C330.959 232.565 329.989 232.991 328.969 233.015C329.713 232.726 330.352 232.216 330.8 231.554C331.247 230.891 331.483 230.108 331.475 229.309V229.309Z" fill="black"/>
<path d="M337.931 223.265C337.628 223.034 337.631 222.518 337.939 222.113C338.247 221.707 338.742 221.565 339.046 221.796C339.349 222.026 339.345 222.542 339.037 222.948C338.73 223.354 338.234 223.496 337.931 223.265Z" fill="#FBBEBE"/>
<defs>
<linearGradient id="paint0_linear_654:2" x1="173.169" y1="300.475" x2="173.169" y2="209.734" gradientUnits="userSpaceOnUse">
<stop stop-color="#808080" stop-opacity="0.25"/>
<stop offset="0.54" stop-color="#808080" stop-opacity="0.12"/>
<stop offset="1" stop-color="#808080" stop-opacity="0.1"/>
</linearGradient>
<linearGradient id="paint1_linear_654:2" x1="-32278.8" y1="35340.6" x2="-32278.8" y2="29970.5" gradientUnits="userSpaceOnUse">
<stop stop-color="#808080" stop-opacity="0.25"/>
<stop offset="0.54" stop-color="#808080" stop-opacity="0.12"/>
<stop offset="1" stop-color="#808080" stop-opacity="0.1"/>
</linearGradient>
</defs>
</svg>
