<svg width="3093" height="569" viewBox="0 0 3093 569" fill="none" xmlns="http://www.w3.org/2000/svg">
<mask id="path-1-outside-1" maskUnits="userSpaceOnUse" x="724.828" y="92" width="2368" height="219" fill="black">
<rect fill="white" x="724.828" y="92" width="2368" height="219"/>
<path d="M885.292 251.874C885.292 262.293 882.638 271.631 877.33 279.888C872.023 287.947 864.847 294.336 855.804 299.054C846.958 303.576 837.227 305.837 826.612 305.837H727.828V96.4744H828.676C838.505 96.4744 846.958 99.1283 854.035 104.436C861.112 109.547 866.617 116.231 870.548 124.488C874.48 132.548 876.446 141.001 876.446 149.847C876.446 160.266 873.792 169.899 868.484 178.745C863.176 187.591 855.804 194.177 846.368 198.502C858.163 202.04 867.6 208.626 874.677 218.258C881.754 227.891 885.292 239.096 885.292 251.874ZM748.469 114.462V191.719H820.419C827.3 191.719 833.394 189.95 838.702 186.412C844.206 182.677 848.433 177.959 851.381 172.258C854.527 166.36 856.099 159.971 856.099 153.091C856.099 146.014 854.625 139.526 851.676 133.629C848.727 127.731 844.697 123.112 839.586 119.77C834.475 116.231 828.676 114.462 822.189 114.462H748.469ZM864.651 248.336C864.651 241.455 863.078 234.968 859.933 228.874C856.787 222.78 852.463 217.865 846.958 214.13C841.65 210.395 835.556 208.527 828.676 208.527H748.469V287.849H826.612C833.689 287.849 840.078 285.982 845.779 282.247C851.48 278.511 856.001 273.695 859.343 267.798C862.882 261.703 864.651 255.216 864.651 248.336Z"/>
<path d="M984.774 96.4744H1002.17L1089.16 305.837H1067.34L1040.21 240.374H946.145L919.311 305.837H897.195L984.774 96.4744ZM1035.49 224.156L993.325 120.654L950.568 224.156H1035.49Z"/>
<path d="M1119.17 305.837V96.4744H1207.64C1216.68 96.4744 1224.94 98.3419 1232.41 102.077C1240.07 105.812 1246.66 110.923 1252.16 117.411C1257.67 123.701 1261.89 130.778 1264.84 138.642C1267.99 146.309 1269.56 154.172 1269.56 162.232C1269.56 172.454 1267.59 181.989 1263.66 190.835C1259.93 199.681 1254.52 207.151 1247.44 213.245C1240.37 219.34 1232.21 223.271 1222.97 225.041L1274.28 305.837H1250.98L1201.74 228.579H1139.81V305.837H1119.17ZM1139.81 210.297H1208.23C1216.48 210.297 1223.66 208.036 1229.75 203.515C1235.85 198.797 1240.56 192.801 1243.91 185.527C1247.25 178.253 1248.92 170.488 1248.92 162.232C1248.92 153.779 1246.95 146.014 1243.02 138.937C1239.29 131.663 1234.17 125.864 1227.69 121.539C1221.2 117.017 1214.12 114.757 1206.46 114.757H1139.81V210.297Z"/>
<path d="M1458.42 114.757H1383.82V305.837H1363.18V114.757H1288.57V96.4744H1458.42V114.757Z"/>
<path d="M1566.63 307.311C1551.89 307.311 1538.52 304.362 1526.53 298.465C1514.54 292.371 1504.22 284.311 1495.57 274.285C1486.92 264.259 1480.23 252.955 1475.51 240.374C1470.8 227.596 1468.44 214.523 1468.44 201.156C1468.44 187.198 1470.9 173.929 1475.81 161.347C1480.72 148.569 1487.6 137.266 1496.45 127.436C1505.49 117.411 1516.01 109.547 1528 103.846C1539.99 97.9488 1552.97 95 1566.93 95C1581.47 95 1594.74 98.0471 1606.73 104.141C1618.73 110.235 1629.05 118.394 1637.7 128.616C1646.54 138.838 1653.23 150.24 1657.75 162.822C1662.47 175.403 1664.83 188.279 1664.83 201.45C1664.83 215.408 1662.37 228.776 1657.45 241.554C1652.54 254.135 1645.66 265.439 1636.81 275.464C1627.97 285.294 1617.55 293.059 1605.56 298.76C1593.56 304.461 1580.59 307.311 1566.63 307.311ZM1489.08 201.156C1489.08 212.557 1490.95 223.468 1494.68 233.887C1498.42 244.306 1503.72 253.644 1510.61 261.9C1517.49 270.157 1525.64 276.742 1535.08 281.657C1544.71 286.375 1555.23 288.734 1566.63 288.734C1578.62 288.734 1589.34 286.277 1598.77 281.362C1608.41 276.251 1616.56 269.469 1623.25 261.015C1630.13 252.562 1635.34 243.225 1638.88 233.002C1642.41 222.583 1644.18 211.968 1644.18 201.156C1644.18 189.754 1642.32 178.843 1638.58 168.424C1634.85 158.005 1629.44 148.668 1622.36 140.411C1615.48 132.154 1607.32 125.667 1597.89 120.949C1588.45 116.231 1578.03 113.872 1566.63 113.872C1554.84 113.872 1544.12 116.329 1534.49 121.244C1525.05 126.159 1516.9 132.842 1510.02 141.296C1503.33 149.552 1498.12 158.89 1494.39 169.309C1490.85 179.728 1489.08 190.343 1489.08 201.156Z"/>
<path d="M1826.12 135.693C1820.22 129.206 1812.36 123.898 1802.53 119.77C1792.7 115.445 1781.49 113.282 1768.91 113.282C1750.43 113.282 1736.96 116.821 1728.51 123.898C1720.06 130.778 1715.83 140.214 1715.83 152.206C1715.83 160.463 1717.9 166.95 1722.02 171.668C1726.15 176.386 1732.44 180.318 1740.9 183.463C1749.55 186.412 1760.56 189.36 1773.92 192.309C1788.86 195.455 1801.74 199.19 1812.55 203.515C1823.36 207.839 1831.72 213.737 1837.62 221.207C1843.51 228.481 1846.46 238.408 1846.46 250.99C1846.46 263.768 1843.22 274.383 1836.73 282.836C1830.24 291.289 1821.3 297.58 1809.9 301.708C1798.5 305.64 1785.52 307.606 1770.97 307.606C1738.34 307.606 1710.33 297.482 1686.93 277.234L1697.25 260.426C1704.73 268.289 1714.95 275.071 1727.92 280.772C1741.09 286.473 1755.64 289.324 1771.56 289.324C1788.08 289.324 1801.05 286.277 1810.49 280.182C1819.92 274.088 1824.64 265.045 1824.64 253.054C1824.64 244.404 1822.28 237.524 1817.56 232.412C1812.85 227.105 1805.77 222.78 1796.33 219.438C1786.9 216.096 1775.3 212.852 1761.54 209.707C1746.99 206.365 1734.7 202.63 1724.68 198.502C1714.85 194.373 1707.38 188.967 1702.27 182.283C1697.16 175.6 1694.6 166.557 1694.6 155.155C1694.6 142.18 1697.75 131.27 1704.04 122.424C1710.52 113.381 1719.37 106.598 1730.58 102.077C1741.78 97.359 1754.66 95 1769.2 95C1782.97 95 1795.35 97.1624 1806.36 101.487C1817.37 105.616 1827.3 111.513 1836.14 119.18L1826.12 135.693Z"/>
<path d="M1865.75 289.618L2008.18 114.757H1868.11V96.4744H2032.06V112.693L1891.41 287.554H2031.77V305.837H1865.75V289.618Z"/>
<path d="M2265.84 135.693C2259.94 129.206 2252.08 123.898 2242.25 119.77C2232.42 115.445 2221.21 113.282 2208.63 113.282C2190.15 113.282 2176.69 116.821 2168.23 123.898C2159.78 130.778 2155.56 140.214 2155.56 152.206C2155.56 160.463 2157.62 166.95 2161.75 171.668C2165.88 176.386 2172.17 180.318 2180.62 183.463C2189.27 186.412 2200.28 189.36 2213.65 192.309C2228.59 195.455 2241.46 199.19 2252.27 203.515C2263.09 207.839 2271.44 213.737 2277.34 221.207C2283.24 228.481 2286.19 238.408 2286.19 250.99C2286.19 263.768 2282.94 274.383 2276.45 282.836C2269.97 291.289 2261.02 297.58 2249.62 301.708C2238.22 305.64 2225.24 307.606 2210.7 307.606C2178.06 307.606 2150.05 297.482 2126.66 277.234L2136.98 260.426C2144.45 268.289 2154.67 275.071 2167.64 280.772C2180.82 286.473 2195.36 289.324 2211.29 289.324C2227.8 289.324 2240.77 286.277 2250.21 280.182C2259.65 274.088 2264.36 265.045 2264.36 253.054C2264.36 244.404 2262.01 237.524 2257.29 232.412C2252.57 227.105 2245.49 222.78 2236.06 219.438C2226.62 216.096 2215.02 212.852 2201.26 209.707C2186.71 206.365 2174.43 202.63 2164.4 198.502C2154.57 194.373 2147.1 188.967 2141.99 182.283C2136.88 175.6 2134.32 166.557 2134.32 155.155C2134.32 142.18 2137.47 131.27 2143.76 122.424C2150.25 113.381 2159.09 106.598 2170.3 102.077C2181.5 97.359 2194.38 95 2208.93 95C2222.69 95 2235.07 97.1624 2246.08 101.487C2257.09 105.616 2267.02 111.513 2275.86 119.18L2265.84 135.693Z"/>
<path d="M2406.91 307.311C2392.17 307.311 2378.8 304.362 2366.81 298.465C2354.82 292.371 2344.5 284.311 2335.85 274.285C2327.2 264.259 2320.52 252.955 2315.8 240.374C2311.08 227.596 2308.72 214.523 2308.72 201.156C2308.72 187.198 2311.18 173.929 2316.09 161.347C2321.01 148.569 2327.89 137.266 2336.73 127.436C2345.78 117.411 2356.29 109.547 2368.29 103.846C2380.28 97.9488 2393.25 95 2407.21 95C2421.76 95 2435.03 98.0471 2447.02 104.141C2459.01 110.235 2469.33 118.394 2477.98 128.616C2486.83 138.838 2493.51 150.24 2498.03 162.822C2502.75 175.403 2505.11 188.279 2505.11 201.45C2505.11 215.408 2502.65 228.776 2497.74 241.554C2492.82 254.135 2485.94 265.439 2477.09 275.464C2468.25 285.294 2457.83 293.059 2445.84 298.76C2433.85 304.461 2420.87 307.311 2406.91 307.311ZM2329.36 201.156C2329.36 212.557 2331.23 223.468 2334.96 233.887C2338.7 244.306 2344.01 253.644 2350.89 261.9C2357.77 270.157 2365.93 276.742 2375.36 281.657C2384.99 286.375 2395.51 288.734 2406.91 288.734C2418.91 288.734 2429.62 286.277 2439.06 281.362C2448.69 276.251 2456.85 269.469 2463.53 261.015C2470.41 252.562 2475.62 243.225 2479.16 233.002C2482.7 222.583 2484.47 211.968 2484.47 201.156C2484.47 189.754 2482.6 178.843 2478.86 168.424C2475.13 158.005 2469.72 148.668 2462.65 140.411C2455.77 132.154 2447.61 125.667 2438.17 120.949C2428.73 116.231 2418.32 113.872 2406.91 113.872C2395.12 113.872 2384.41 116.329 2374.77 121.244C2365.34 126.159 2357.18 132.842 2350.3 141.296C2343.61 149.552 2338.4 158.89 2334.67 169.309C2331.13 179.728 2329.36 190.343 2329.36 201.156Z"/>
<path d="M2544.02 305.837V96.4744H2564.67V287.554H2685.57V305.837H2544.02Z"/>
<path d="M2791.34 307.311C2777.19 307.311 2764.11 304.362 2752.12 298.465C2740.33 292.371 2730.01 284.212 2721.16 273.99C2712.31 263.768 2705.43 252.366 2700.52 239.784C2695.8 227.006 2693.44 214.032 2693.44 200.861C2693.44 186.903 2695.8 173.634 2700.52 161.052C2705.43 148.274 2712.22 136.971 2720.87 127.142C2729.52 117.116 2739.74 109.252 2751.53 103.551C2763.33 97.8505 2776.2 95 2790.16 95C2810.8 95 2827.61 99.2266 2840.59 107.68C2853.56 116.133 2863.39 127.142 2870.07 140.706L2854.15 151.321C2847.47 138.347 2838.52 128.812 2827.32 122.718C2816.11 116.624 2803.63 113.577 2789.87 113.577C2778.27 113.577 2767.75 116.035 2758.31 120.949C2749.08 125.864 2741.11 132.449 2734.43 140.706C2727.94 148.962 2722.93 158.3 2719.39 168.719C2715.85 179.138 2714.08 189.95 2714.08 201.156C2714.08 212.951 2716.05 224.156 2719.98 234.771C2723.91 245.19 2729.42 254.528 2736.49 262.785C2743.77 270.845 2752.12 277.234 2761.56 281.952C2771.19 286.473 2781.61 288.734 2792.82 288.734C2804.81 288.734 2816.21 285.883 2827.02 280.182C2838.03 274.481 2848.55 265.635 2858.57 253.644V218.848H2811.98V202.925H2875.97V305.837H2858.57V275.169C2839.31 296.597 2816.9 307.311 2791.34 307.311Z"/>
<path d="M2983.25 96.4744H3000.65L3087.64 305.837H3065.82L3038.69 240.374H2944.62L2917.79 305.837H2895.67L2983.25 96.4744ZM3033.97 224.156L2991.8 120.654L2949.05 224.156H3033.97Z"/>
</mask>
<path d="M885.292 251.874C885.292 262.293 882.638 271.631 877.33 279.888C872.023 287.947 864.847 294.336 855.804 299.054C846.958 303.576 837.227 305.837 826.612 305.837H727.828V96.4744H828.676C838.505 96.4744 846.958 99.1283 854.035 104.436C861.112 109.547 866.617 116.231 870.548 124.488C874.48 132.548 876.446 141.001 876.446 149.847C876.446 160.266 873.792 169.899 868.484 178.745C863.176 187.591 855.804 194.177 846.368 198.502C858.163 202.04 867.6 208.626 874.677 218.258C881.754 227.891 885.292 239.096 885.292 251.874ZM748.469 114.462V191.719H820.419C827.3 191.719 833.394 189.95 838.702 186.412C844.206 182.677 848.433 177.959 851.381 172.258C854.527 166.36 856.099 159.971 856.099 153.091C856.099 146.014 854.625 139.526 851.676 133.629C848.727 127.731 844.697 123.112 839.586 119.77C834.475 116.231 828.676 114.462 822.189 114.462H748.469ZM864.651 248.336C864.651 241.455 863.078 234.968 859.933 228.874C856.787 222.78 852.463 217.865 846.958 214.13C841.65 210.395 835.556 208.527 828.676 208.527H748.469V287.849H826.612C833.689 287.849 840.078 285.982 845.779 282.247C851.48 278.511 856.001 273.695 859.343 267.798C862.882 261.703 864.651 255.216 864.651 248.336Z" fill="white"/>
<path d="M984.774 96.4744H1002.17L1089.16 305.837H1067.34L1040.21 240.374H946.145L919.311 305.837H897.195L984.774 96.4744ZM1035.49 224.156L993.325 120.654L950.568 224.156H1035.49Z" fill="white"/>
<path d="M1119.17 305.837V96.4744H1207.64C1216.68 96.4744 1224.94 98.3419 1232.41 102.077C1240.07 105.812 1246.66 110.923 1252.16 117.411C1257.67 123.701 1261.89 130.778 1264.84 138.642C1267.99 146.309 1269.56 154.172 1269.56 162.232C1269.56 172.454 1267.59 181.989 1263.66 190.835C1259.93 199.681 1254.52 207.151 1247.44 213.245C1240.37 219.34 1232.21 223.271 1222.97 225.041L1274.28 305.837H1250.98L1201.74 228.579H1139.81V305.837H1119.17ZM1139.81 210.297H1208.23C1216.48 210.297 1223.66 208.036 1229.75 203.515C1235.85 198.797 1240.56 192.801 1243.91 185.527C1247.25 178.253 1248.92 170.488 1248.92 162.232C1248.92 153.779 1246.95 146.014 1243.02 138.937C1239.29 131.663 1234.17 125.864 1227.69 121.539C1221.2 117.017 1214.12 114.757 1206.46 114.757H1139.81V210.297Z" fill="white"/>
<path d="M1458.42 114.757H1383.82V305.837H1363.18V114.757H1288.57V96.4744H1458.42V114.757Z" fill="white"/>
<path d="M1566.63 307.311C1551.89 307.311 1538.52 304.362 1526.53 298.465C1514.54 292.371 1504.22 284.311 1495.57 274.285C1486.92 264.259 1480.23 252.955 1475.51 240.374C1470.8 227.596 1468.44 214.523 1468.44 201.156C1468.44 187.198 1470.9 173.929 1475.81 161.347C1480.72 148.569 1487.6 137.266 1496.45 127.436C1505.49 117.411 1516.01 109.547 1528 103.846C1539.99 97.9488 1552.97 95 1566.93 95C1581.47 95 1594.74 98.0471 1606.73 104.141C1618.73 110.235 1629.05 118.394 1637.7 128.616C1646.54 138.838 1653.23 150.24 1657.75 162.822C1662.47 175.403 1664.83 188.279 1664.83 201.45C1664.83 215.408 1662.37 228.776 1657.45 241.554C1652.54 254.135 1645.66 265.439 1636.81 275.464C1627.97 285.294 1617.55 293.059 1605.56 298.76C1593.56 304.461 1580.59 307.311 1566.63 307.311ZM1489.08 201.156C1489.08 212.557 1490.95 223.468 1494.68 233.887C1498.42 244.306 1503.72 253.644 1510.61 261.9C1517.49 270.157 1525.64 276.742 1535.08 281.657C1544.71 286.375 1555.23 288.734 1566.63 288.734C1578.62 288.734 1589.34 286.277 1598.77 281.362C1608.41 276.251 1616.56 269.469 1623.25 261.015C1630.13 252.562 1635.34 243.225 1638.88 233.002C1642.41 222.583 1644.18 211.968 1644.18 201.156C1644.18 189.754 1642.32 178.843 1638.58 168.424C1634.85 158.005 1629.44 148.668 1622.36 140.411C1615.48 132.154 1607.32 125.667 1597.89 120.949C1588.45 116.231 1578.03 113.872 1566.63 113.872C1554.84 113.872 1544.12 116.329 1534.49 121.244C1525.05 126.159 1516.9 132.842 1510.02 141.296C1503.33 149.552 1498.12 158.89 1494.39 169.309C1490.85 179.728 1489.08 190.343 1489.08 201.156Z" fill="white"/>
<path d="M1826.12 135.693C1820.22 129.206 1812.36 123.898 1802.53 119.77C1792.7 115.445 1781.49 113.282 1768.91 113.282C1750.43 113.282 1736.96 116.821 1728.51 123.898C1720.06 130.778 1715.83 140.214 1715.83 152.206C1715.83 160.463 1717.9 166.95 1722.02 171.668C1726.15 176.386 1732.44 180.318 1740.9 183.463C1749.55 186.412 1760.56 189.36 1773.92 192.309C1788.86 195.455 1801.74 199.19 1812.55 203.515C1823.36 207.839 1831.72 213.737 1837.62 221.207C1843.51 228.481 1846.46 238.408 1846.46 250.99C1846.46 263.768 1843.22 274.383 1836.73 282.836C1830.24 291.289 1821.3 297.58 1809.9 301.708C1798.5 305.64 1785.52 307.606 1770.97 307.606C1738.34 307.606 1710.33 297.482 1686.93 277.234L1697.25 260.426C1704.73 268.289 1714.95 275.071 1727.92 280.772C1741.09 286.473 1755.64 289.324 1771.56 289.324C1788.08 289.324 1801.05 286.277 1810.49 280.182C1819.92 274.088 1824.64 265.045 1824.64 253.054C1824.64 244.404 1822.28 237.524 1817.56 232.412C1812.85 227.105 1805.77 222.78 1796.33 219.438C1786.9 216.096 1775.3 212.852 1761.54 209.707C1746.99 206.365 1734.7 202.63 1724.68 198.502C1714.85 194.373 1707.38 188.967 1702.27 182.283C1697.16 175.6 1694.6 166.557 1694.6 155.155C1694.6 142.18 1697.75 131.27 1704.04 122.424C1710.52 113.381 1719.37 106.598 1730.58 102.077C1741.78 97.359 1754.66 95 1769.2 95C1782.97 95 1795.35 97.1624 1806.36 101.487C1817.37 105.616 1827.3 111.513 1836.14 119.18L1826.12 135.693Z" fill="white"/>
<path d="M1865.75 289.618L2008.18 114.757H1868.11V96.4744H2032.06V112.693L1891.41 287.554H2031.77V305.837H1865.75V289.618Z" fill="white"/>
<path d="M2265.84 135.693C2259.94 129.206 2252.08 123.898 2242.25 119.77C2232.42 115.445 2221.21 113.282 2208.63 113.282C2190.15 113.282 2176.69 116.821 2168.23 123.898C2159.78 130.778 2155.56 140.214 2155.56 152.206C2155.56 160.463 2157.62 166.95 2161.75 171.668C2165.88 176.386 2172.17 180.318 2180.62 183.463C2189.27 186.412 2200.28 189.36 2213.65 192.309C2228.59 195.455 2241.46 199.19 2252.27 203.515C2263.09 207.839 2271.44 213.737 2277.34 221.207C2283.24 228.481 2286.19 238.408 2286.19 250.99C2286.19 263.768 2282.94 274.383 2276.45 282.836C2269.97 291.289 2261.02 297.58 2249.62 301.708C2238.22 305.64 2225.24 307.606 2210.7 307.606C2178.06 307.606 2150.05 297.482 2126.66 277.234L2136.98 260.426C2144.45 268.289 2154.67 275.071 2167.64 280.772C2180.82 286.473 2195.36 289.324 2211.29 289.324C2227.8 289.324 2240.77 286.277 2250.21 280.182C2259.65 274.088 2264.36 265.045 2264.36 253.054C2264.36 244.404 2262.01 237.524 2257.29 232.412C2252.57 227.105 2245.49 222.78 2236.06 219.438C2226.62 216.096 2215.02 212.852 2201.26 209.707C2186.71 206.365 2174.43 202.63 2164.4 198.502C2154.57 194.373 2147.1 188.967 2141.99 182.283C2136.88 175.6 2134.32 166.557 2134.32 155.155C2134.32 142.18 2137.47 131.27 2143.76 122.424C2150.25 113.381 2159.09 106.598 2170.3 102.077C2181.5 97.359 2194.38 95 2208.93 95C2222.69 95 2235.07 97.1624 2246.08 101.487C2257.09 105.616 2267.02 111.513 2275.86 119.18L2265.84 135.693Z" fill="white"/>
<path d="M2406.91 307.311C2392.17 307.311 2378.8 304.362 2366.81 298.465C2354.82 292.371 2344.5 284.311 2335.85 274.285C2327.2 264.259 2320.52 252.955 2315.8 240.374C2311.08 227.596 2308.72 214.523 2308.72 201.156C2308.72 187.198 2311.18 173.929 2316.09 161.347C2321.01 148.569 2327.89 137.266 2336.73 127.436C2345.78 117.411 2356.29 109.547 2368.29 103.846C2380.28 97.9488 2393.25 95 2407.21 95C2421.76 95 2435.03 98.0471 2447.02 104.141C2459.01 110.235 2469.33 118.394 2477.98 128.616C2486.83 138.838 2493.51 150.24 2498.03 162.822C2502.75 175.403 2505.11 188.279 2505.11 201.45C2505.11 215.408 2502.65 228.776 2497.74 241.554C2492.82 254.135 2485.94 265.439 2477.09 275.464C2468.25 285.294 2457.83 293.059 2445.84 298.76C2433.85 304.461 2420.87 307.311 2406.91 307.311ZM2329.36 201.156C2329.36 212.557 2331.23 223.468 2334.96 233.887C2338.7 244.306 2344.01 253.644 2350.89 261.9C2357.77 270.157 2365.93 276.742 2375.36 281.657C2384.99 286.375 2395.51 288.734 2406.91 288.734C2418.91 288.734 2429.62 286.277 2439.06 281.362C2448.69 276.251 2456.85 269.469 2463.53 261.015C2470.41 252.562 2475.62 243.225 2479.16 233.002C2482.7 222.583 2484.47 211.968 2484.47 201.156C2484.47 189.754 2482.6 178.843 2478.86 168.424C2475.13 158.005 2469.72 148.668 2462.65 140.411C2455.77 132.154 2447.61 125.667 2438.17 120.949C2428.73 116.231 2418.32 113.872 2406.91 113.872C2395.12 113.872 2384.41 116.329 2374.77 121.244C2365.34 126.159 2357.18 132.842 2350.3 141.296C2343.61 149.552 2338.4 158.89 2334.67 169.309C2331.13 179.728 2329.36 190.343 2329.36 201.156Z" fill="white"/>
<path d="M2544.02 305.837V96.4744H2564.67V287.554H2685.57V305.837H2544.02Z" fill="white"/>
<path d="M2791.34 307.311C2777.19 307.311 2764.11 304.362 2752.12 298.465C2740.33 292.371 2730.01 284.212 2721.16 273.99C2712.31 263.768 2705.43 252.366 2700.52 239.784C2695.8 227.006 2693.44 214.032 2693.44 200.861C2693.44 186.903 2695.8 173.634 2700.52 161.052C2705.43 148.274 2712.22 136.971 2720.87 127.142C2729.52 117.116 2739.74 109.252 2751.53 103.551C2763.33 97.8505 2776.2 95 2790.16 95C2810.8 95 2827.61 99.2266 2840.59 107.68C2853.56 116.133 2863.39 127.142 2870.07 140.706L2854.15 151.321C2847.47 138.347 2838.52 128.812 2827.32 122.718C2816.11 116.624 2803.63 113.577 2789.87 113.577C2778.27 113.577 2767.75 116.035 2758.31 120.949C2749.08 125.864 2741.11 132.449 2734.43 140.706C2727.94 148.962 2722.93 158.3 2719.39 168.719C2715.85 179.138 2714.08 189.95 2714.08 201.156C2714.08 212.951 2716.05 224.156 2719.98 234.771C2723.91 245.19 2729.42 254.528 2736.49 262.785C2743.77 270.845 2752.12 277.234 2761.56 281.952C2771.19 286.473 2781.61 288.734 2792.82 288.734C2804.81 288.734 2816.21 285.883 2827.02 280.182C2838.03 274.481 2848.55 265.635 2858.57 253.644V218.848H2811.98V202.925H2875.97V305.837H2858.57V275.169C2839.31 296.597 2816.9 307.311 2791.34 307.311Z" fill="white"/>
<path d="M2983.25 96.4744H3000.65L3087.64 305.837H3065.82L3038.69 240.374H2944.62L2917.79 305.837H2895.67L2983.25 96.4744ZM3033.97 224.156L2991.8 120.654L2949.05 224.156H3033.97Z" fill="white"/>
<path d="M885.292 251.874C885.292 262.293 882.638 271.631 877.33 279.888C872.023 287.947 864.847 294.336 855.804 299.054C846.958 303.576 837.227 305.837 826.612 305.837H727.828V96.4744H828.676C838.505 96.4744 846.958 99.1283 854.035 104.436C861.112 109.547 866.617 116.231 870.548 124.488C874.48 132.548 876.446 141.001 876.446 149.847C876.446 160.266 873.792 169.899 868.484 178.745C863.176 187.591 855.804 194.177 846.368 198.502C858.163 202.04 867.6 208.626 874.677 218.258C881.754 227.891 885.292 239.096 885.292 251.874ZM748.469 114.462V191.719H820.419C827.3 191.719 833.394 189.95 838.702 186.412C844.206 182.677 848.433 177.959 851.381 172.258C854.527 166.36 856.099 159.971 856.099 153.091C856.099 146.014 854.625 139.526 851.676 133.629C848.727 127.731 844.697 123.112 839.586 119.77C834.475 116.231 828.676 114.462 822.189 114.462H748.469ZM864.651 248.336C864.651 241.455 863.078 234.968 859.933 228.874C856.787 222.78 852.463 217.865 846.958 214.13C841.65 210.395 835.556 208.527 828.676 208.527H748.469V287.849H826.612C833.689 287.849 840.078 285.982 845.779 282.247C851.48 278.511 856.001 273.695 859.343 267.798C862.882 261.703 864.651 255.216 864.651 248.336Z" stroke="white" stroke-width="6" mask="url(#path-1-outside-1)"/>
<path d="M984.774 96.4744H1002.17L1089.16 305.837H1067.34L1040.21 240.374H946.145L919.311 305.837H897.195L984.774 96.4744ZM1035.49 224.156L993.325 120.654L950.568 224.156H1035.49Z" stroke="white" stroke-width="6" mask="url(#path-1-outside-1)"/>
<path d="M1119.17 305.837V96.4744H1207.64C1216.68 96.4744 1224.94 98.3419 1232.41 102.077C1240.07 105.812 1246.66 110.923 1252.16 117.411C1257.67 123.701 1261.89 130.778 1264.84 138.642C1267.99 146.309 1269.56 154.172 1269.56 162.232C1269.56 172.454 1267.59 181.989 1263.66 190.835C1259.93 199.681 1254.52 207.151 1247.44 213.245C1240.37 219.34 1232.21 223.271 1222.97 225.041L1274.28 305.837H1250.98L1201.74 228.579H1139.81V305.837H1119.17ZM1139.81 210.297H1208.23C1216.48 210.297 1223.66 208.036 1229.75 203.515C1235.85 198.797 1240.56 192.801 1243.91 185.527C1247.25 178.253 1248.92 170.488 1248.92 162.232C1248.92 153.779 1246.95 146.014 1243.02 138.937C1239.29 131.663 1234.17 125.864 1227.69 121.539C1221.2 117.017 1214.12 114.757 1206.46 114.757H1139.81V210.297Z" stroke="white" stroke-width="6" mask="url(#path-1-outside-1)"/>
<path d="M1458.42 114.757H1383.82V305.837H1363.18V114.757H1288.57V96.4744H1458.42V114.757Z" stroke="white" stroke-width="6" mask="url(#path-1-outside-1)"/>
<path d="M1566.63 307.311C1551.89 307.311 1538.52 304.362 1526.53 298.465C1514.54 292.371 1504.22 284.311 1495.57 274.285C1486.92 264.259 1480.23 252.955 1475.51 240.374C1470.8 227.596 1468.44 214.523 1468.44 201.156C1468.44 187.198 1470.9 173.929 1475.81 161.347C1480.72 148.569 1487.6 137.266 1496.45 127.436C1505.49 117.411 1516.01 109.547 1528 103.846C1539.99 97.9488 1552.97 95 1566.93 95C1581.47 95 1594.74 98.0471 1606.73 104.141C1618.73 110.235 1629.05 118.394 1637.7 128.616C1646.54 138.838 1653.23 150.24 1657.75 162.822C1662.47 175.403 1664.83 188.279 1664.83 201.45C1664.83 215.408 1662.37 228.776 1657.45 241.554C1652.54 254.135 1645.66 265.439 1636.81 275.464C1627.97 285.294 1617.55 293.059 1605.56 298.76C1593.56 304.461 1580.59 307.311 1566.63 307.311ZM1489.08 201.156C1489.08 212.557 1490.95 223.468 1494.68 233.887C1498.42 244.306 1503.72 253.644 1510.61 261.9C1517.49 270.157 1525.64 276.742 1535.08 281.657C1544.71 286.375 1555.23 288.734 1566.63 288.734C1578.62 288.734 1589.34 286.277 1598.77 281.362C1608.41 276.251 1616.56 269.469 1623.25 261.015C1630.13 252.562 1635.34 243.225 1638.88 233.002C1642.41 222.583 1644.18 211.968 1644.18 201.156C1644.18 189.754 1642.32 178.843 1638.58 168.424C1634.85 158.005 1629.44 148.668 1622.36 140.411C1615.48 132.154 1607.32 125.667 1597.89 120.949C1588.45 116.231 1578.03 113.872 1566.63 113.872C1554.84 113.872 1544.12 116.329 1534.49 121.244C1525.05 126.159 1516.9 132.842 1510.02 141.296C1503.33 149.552 1498.12 158.89 1494.39 169.309C1490.85 179.728 1489.08 190.343 1489.08 201.156Z" stroke="white" stroke-width="6" mask="url(#path-1-outside-1)"/>
<path d="M1826.12 135.693C1820.22 129.206 1812.36 123.898 1802.53 119.77C1792.7 115.445 1781.49 113.282 1768.91 113.282C1750.43 113.282 1736.96 116.821 1728.51 123.898C1720.06 130.778 1715.83 140.214 1715.83 152.206C1715.83 160.463 1717.9 166.95 1722.02 171.668C1726.15 176.386 1732.44 180.318 1740.9 183.463C1749.55 186.412 1760.56 189.36 1773.92 192.309C1788.86 195.455 1801.74 199.19 1812.55 203.515C1823.36 207.839 1831.72 213.737 1837.62 221.207C1843.51 228.481 1846.46 238.408 1846.46 250.99C1846.46 263.768 1843.22 274.383 1836.73 282.836C1830.24 291.289 1821.3 297.58 1809.9 301.708C1798.5 305.64 1785.52 307.606 1770.97 307.606C1738.34 307.606 1710.33 297.482 1686.93 277.234L1697.25 260.426C1704.73 268.289 1714.95 275.071 1727.92 280.772C1741.09 286.473 1755.64 289.324 1771.56 289.324C1788.08 289.324 1801.05 286.277 1810.49 280.182C1819.92 274.088 1824.64 265.045 1824.64 253.054C1824.64 244.404 1822.28 237.524 1817.56 232.412C1812.85 227.105 1805.77 222.78 1796.33 219.438C1786.9 216.096 1775.3 212.852 1761.54 209.707C1746.99 206.365 1734.7 202.63 1724.68 198.502C1714.85 194.373 1707.38 188.967 1702.27 182.283C1697.16 175.6 1694.6 166.557 1694.6 155.155C1694.6 142.18 1697.75 131.27 1704.04 122.424C1710.52 113.381 1719.37 106.598 1730.58 102.077C1741.78 97.359 1754.66 95 1769.2 95C1782.97 95 1795.35 97.1624 1806.36 101.487C1817.37 105.616 1827.3 111.513 1836.14 119.18L1826.12 135.693Z" stroke="white" stroke-width="6" mask="url(#path-1-outside-1)"/>
<path d="M1865.75 289.618L2008.18 114.757H1868.11V96.4744H2032.06V112.693L1891.41 287.554H2031.77V305.837H1865.75V289.618Z" stroke="white" stroke-width="6" mask="url(#path-1-outside-1)"/>
<path d="M2265.84 135.693C2259.94 129.206 2252.08 123.898 2242.25 119.77C2232.42 115.445 2221.21 113.282 2208.63 113.282C2190.15 113.282 2176.69 116.821 2168.23 123.898C2159.78 130.778 2155.56 140.214 2155.56 152.206C2155.56 160.463 2157.62 166.95 2161.75 171.668C2165.88 176.386 2172.17 180.318 2180.62 183.463C2189.27 186.412 2200.28 189.36 2213.65 192.309C2228.59 195.455 2241.46 199.19 2252.27 203.515C2263.09 207.839 2271.44 213.737 2277.34 221.207C2283.24 228.481 2286.19 238.408 2286.19 250.99C2286.19 263.768 2282.94 274.383 2276.45 282.836C2269.97 291.289 2261.02 297.58 2249.62 301.708C2238.22 305.64 2225.24 307.606 2210.7 307.606C2178.06 307.606 2150.05 297.482 2126.66 277.234L2136.98 260.426C2144.45 268.289 2154.67 275.071 2167.64 280.772C2180.82 286.473 2195.36 289.324 2211.29 289.324C2227.8 289.324 2240.77 286.277 2250.21 280.182C2259.65 274.088 2264.36 265.045 2264.36 253.054C2264.36 244.404 2262.01 237.524 2257.29 232.412C2252.57 227.105 2245.49 222.78 2236.06 219.438C2226.62 216.096 2215.02 212.852 2201.26 209.707C2186.71 206.365 2174.43 202.63 2164.4 198.502C2154.57 194.373 2147.1 188.967 2141.99 182.283C2136.88 175.6 2134.32 166.557 2134.32 155.155C2134.32 142.18 2137.47 131.27 2143.76 122.424C2150.25 113.381 2159.09 106.598 2170.3 102.077C2181.5 97.359 2194.38 95 2208.93 95C2222.69 95 2235.07 97.1624 2246.08 101.487C2257.09 105.616 2267.02 111.513 2275.86 119.18L2265.84 135.693Z" stroke="white" stroke-width="6" mask="url(#path-1-outside-1)"/>
<path d="M2406.91 307.311C2392.17 307.311 2378.8 304.362 2366.81 298.465C2354.82 292.371 2344.5 284.311 2335.85 274.285C2327.2 264.259 2320.52 252.955 2315.8 240.374C2311.08 227.596 2308.72 214.523 2308.72 201.156C2308.72 187.198 2311.18 173.929 2316.09 161.347C2321.01 148.569 2327.89 137.266 2336.73 127.436C2345.78 117.411 2356.29 109.547 2368.29 103.846C2380.28 97.9488 2393.25 95 2407.21 95C2421.76 95 2435.03 98.0471 2447.02 104.141C2459.01 110.235 2469.33 118.394 2477.98 128.616C2486.83 138.838 2493.51 150.24 2498.03 162.822C2502.75 175.403 2505.11 188.279 2505.11 201.45C2505.11 215.408 2502.65 228.776 2497.74 241.554C2492.82 254.135 2485.94 265.439 2477.09 275.464C2468.25 285.294 2457.83 293.059 2445.84 298.76C2433.85 304.461 2420.87 307.311 2406.91 307.311ZM2329.36 201.156C2329.36 212.557 2331.23 223.468 2334.96 233.887C2338.7 244.306 2344.01 253.644 2350.89 261.9C2357.77 270.157 2365.93 276.742 2375.36 281.657C2384.99 286.375 2395.51 288.734 2406.91 288.734C2418.91 288.734 2429.62 286.277 2439.06 281.362C2448.69 276.251 2456.85 269.469 2463.53 261.015C2470.41 252.562 2475.62 243.225 2479.16 233.002C2482.7 222.583 2484.47 211.968 2484.47 201.156C2484.47 189.754 2482.6 178.843 2478.86 168.424C2475.13 158.005 2469.72 148.668 2462.65 140.411C2455.77 132.154 2447.61 125.667 2438.17 120.949C2428.73 116.231 2418.32 113.872 2406.91 113.872C2395.12 113.872 2384.41 116.329 2374.77 121.244C2365.34 126.159 2357.18 132.842 2350.3 141.296C2343.61 149.552 2338.4 158.89 2334.67 169.309C2331.13 179.728 2329.36 190.343 2329.36 201.156Z" stroke="white" stroke-width="6" mask="url(#path-1-outside-1)"/>
<path d="M2544.02 305.837V96.4744H2564.67V287.554H2685.57V305.837H2544.02Z" stroke="white" stroke-width="6" mask="url(#path-1-outside-1)"/>
<path d="M2791.34 307.311C2777.19 307.311 2764.11 304.362 2752.12 298.465C2740.33 292.371 2730.01 284.212 2721.16 273.99C2712.31 263.768 2705.43 252.366 2700.52 239.784C2695.8 227.006 2693.44 214.032 2693.44 200.861C2693.44 186.903 2695.8 173.634 2700.52 161.052C2705.43 148.274 2712.22 136.971 2720.87 127.142C2729.52 117.116 2739.74 109.252 2751.53 103.551C2763.33 97.8505 2776.2 95 2790.16 95C2810.8 95 2827.61 99.2266 2840.59 107.68C2853.56 116.133 2863.39 127.142 2870.07 140.706L2854.15 151.321C2847.47 138.347 2838.52 128.812 2827.32 122.718C2816.11 116.624 2803.63 113.577 2789.87 113.577C2778.27 113.577 2767.75 116.035 2758.31 120.949C2749.08 125.864 2741.11 132.449 2734.43 140.706C2727.94 148.962 2722.93 158.3 2719.39 168.719C2715.85 179.138 2714.08 189.95 2714.08 201.156C2714.08 212.951 2716.05 224.156 2719.98 234.771C2723.91 245.19 2729.42 254.528 2736.49 262.785C2743.77 270.845 2752.12 277.234 2761.56 281.952C2771.19 286.473 2781.61 288.734 2792.82 288.734C2804.81 288.734 2816.21 285.883 2827.02 280.182C2838.03 274.481 2848.55 265.635 2858.57 253.644V218.848H2811.98V202.925H2875.97V305.837H2858.57V275.169C2839.31 296.597 2816.9 307.311 2791.34 307.311Z" stroke="white" stroke-width="6" mask="url(#path-1-outside-1)"/>
<path d="M2983.25 96.4744H3000.65L3087.64 305.837H3065.82L3038.69 240.374H2944.62L2917.79 305.837H2895.67L2983.25 96.4744ZM3033.97 224.156L2991.8 120.654L2949.05 224.156H3033.97Z" stroke="white" stroke-width="6" mask="url(#path-1-outside-1)"/>
<path d="M714.706 469.657V362.764H778.694V377.655H730.777V409.944H772.649V424.983H730.777V469.657H714.706Z" fill="#EAEAEA"/>
<path d="M796.488 469.657V362.764H825.681C831.284 362.764 836.395 363.501 841.015 364.976C845.733 366.45 849.763 368.662 853.105 371.61C856.545 374.461 859.199 377.999 861.066 382.226C862.934 386.354 863.868 391.121 863.868 396.527C863.868 399.476 863.573 402.425 862.983 405.374C862.393 408.224 861.41 411.026 860.034 413.778C858.756 416.432 857.085 418.938 855.021 421.297C852.957 423.558 850.451 425.475 847.502 427.047C851.434 433.24 855.709 440.12 860.329 447.689C864.949 455.159 869.618 462.481 874.336 469.657H855.021C853.055 466.61 850.991 463.415 848.829 460.073C846.765 456.731 844.652 453.439 842.489 450.195C840.425 446.853 838.361 443.609 836.297 440.464C834.331 437.22 832.463 434.223 830.694 431.47H812.707V469.657H796.488ZM812.707 416.284H827.303C831.235 416.284 834.527 415.645 837.181 414.367C839.835 412.991 841.899 411.32 843.374 409.355C844.946 407.389 846.028 405.275 846.617 403.015C847.305 400.754 847.649 398.69 847.649 396.822C847.649 394.955 847.305 392.94 846.617 390.777C846.028 388.517 844.946 386.453 843.374 384.585C841.801 382.619 839.688 380.997 837.034 379.72C834.478 378.442 831.284 377.803 827.45 377.803H812.707V416.284Z" fill="#EAEAEA"/>
<path d="M879.966 416.284C879.966 408.912 881.391 401.934 884.242 395.348C887.092 388.664 890.975 382.816 895.889 377.803C900.902 372.79 906.701 368.858 913.287 366.008C919.873 363.059 926.95 361.585 934.518 361.585C941.988 361.585 949.016 363.059 955.602 366.008C962.286 368.858 968.085 372.79 973 377.803C978.012 382.816 981.944 388.664 984.795 395.348C987.743 401.934 989.218 408.912 989.218 416.284C989.218 423.853 987.743 430.93 984.795 437.515C981.944 444.101 978.012 449.9 973 454.913C968.085 459.828 962.286 463.71 955.602 466.561C949.016 469.411 941.988 470.836 934.518 470.836C926.95 470.836 919.873 469.411 913.287 466.561C906.701 463.71 900.902 459.828 895.889 454.913C890.975 449.9 887.092 444.101 884.242 437.515C881.391 430.93 879.966 423.853 879.966 416.284ZM896.037 416.432C896.037 421.838 897.02 426.949 898.986 431.765C901.05 436.483 903.851 440.612 907.39 444.15C910.928 447.689 915.056 450.49 919.774 452.554C924.492 454.618 929.505 455.65 934.813 455.65C940.121 455.65 945.085 454.618 949.704 452.554C954.422 450.49 958.501 447.689 961.942 444.15C965.48 440.612 968.232 436.483 970.198 431.765C972.262 426.949 973.294 421.789 973.294 416.284C973.294 410.878 972.262 405.816 970.198 401.098C968.232 396.282 965.48 392.104 961.942 388.566C958.403 385.027 954.275 382.226 949.557 380.162C944.937 378.098 939.973 377.066 934.666 377.066C929.358 377.066 924.345 378.098 919.627 380.162C914.909 382.226 910.781 385.027 907.242 388.566C903.802 392.104 901.05 396.282 898.986 401.098C897.02 405.914 896.037 411.026 896.037 416.432Z" fill="#EAEAEA"/>
<path d="M1101.77 362.764V474.522C1100.39 472.753 1097.74 469.903 1093.81 465.971C1089.88 462.039 1085.35 457.518 1080.24 452.407C1075.13 447.295 1069.68 441.938 1063.88 436.336C1058.18 430.733 1052.77 425.425 1047.66 420.412C1042.55 415.301 1038.08 410.78 1034.24 406.848C1030.41 402.818 1027.85 399.968 1026.58 398.297L1023.77 394.463L1024.22 399.181V469.657H1008V357.751C1009.08 359.127 1010.85 361.093 1013.31 363.649C1015.86 366.204 1018.81 369.202 1022.15 372.642C1025.59 375.984 1029.33 379.621 1033.36 383.553C1037.49 387.485 1041.61 391.465 1045.74 395.495C1049.97 399.525 1054.1 403.506 1058.13 407.438C1062.26 411.271 1065.99 414.859 1069.33 418.201C1072.77 421.543 1075.72 424.492 1078.18 427.047C1080.64 429.603 1082.36 431.519 1083.34 432.797L1086.14 436.926L1085.7 431.913V362.764H1101.77Z" fill="#EAEAEA"/>
<path d="M1190.3 362.764V378.098H1163.32V469.657H1147.25V378.098H1120.86V362.764H1190.3Z" fill="#EAEAEA"/>
<path d="M1209.29 469.657V362.764H1279.47V377.361H1225.5V408.617H1273.57V423.509H1225.5V454.766H1281.53V469.657H1209.29Z" fill="#EAEAEA"/>
<path d="M1394.05 362.764V474.522C1392.68 472.753 1390.02 469.903 1386.09 465.971C1382.16 462.039 1377.64 457.518 1372.53 452.407C1367.42 447.295 1361.96 441.938 1356.16 436.336C1350.46 430.733 1345.06 425.425 1339.94 420.412C1334.83 415.301 1330.36 410.78 1326.53 406.848C1322.69 402.818 1320.14 399.968 1318.86 398.297L1316.06 394.463L1316.5 399.181V469.657H1300.28V357.751C1301.36 359.127 1303.13 361.093 1305.59 363.649C1308.15 366.204 1311.1 369.202 1314.44 372.642C1317.88 375.984 1321.61 379.621 1325.64 383.553C1329.77 387.485 1333.9 391.465 1338.03 395.495C1342.25 399.525 1346.38 403.506 1350.41 407.438C1354.54 411.271 1358.28 414.859 1361.62 418.201C1365.06 421.543 1368.01 424.492 1370.46 427.047C1372.92 429.603 1374.64 431.519 1375.62 432.797L1378.43 436.926L1377.98 431.913V362.764H1394.05Z" fill="#EAEAEA"/>
<path d="M1420.36 362.764H1447.2C1458.01 362.764 1467.15 364.386 1474.62 367.63C1482.09 370.873 1488.14 375.149 1492.76 380.457C1497.48 385.666 1500.87 391.564 1502.93 398.149C1505.09 404.637 1506.17 411.124 1506.17 417.611C1506.17 425.573 1504.75 432.797 1501.9 439.285C1499.05 445.674 1495.17 451.129 1490.25 455.65C1485.34 460.172 1479.64 463.661 1473.15 466.118C1466.66 468.477 1459.78 469.657 1452.51 469.657H1420.36V362.764ZM1450.15 454.323C1455.85 454.323 1461.11 453.488 1465.92 451.817C1470.84 450.146 1475.06 447.738 1478.6 444.592C1482.24 441.349 1485.04 437.417 1487.01 432.797C1489.07 428.079 1490.1 422.673 1490.1 416.579C1490.1 410.092 1488.97 404.44 1486.71 399.624C1484.45 394.807 1481.5 390.827 1477.87 387.681C1474.23 384.438 1470.1 382.079 1465.48 380.604C1460.96 379.031 1456.34 378.245 1451.62 378.245H1436.44V454.323H1450.15Z" fill="#EAEAEA"/>
<path d="M1559.16 362.764H1586C1596.81 362.764 1605.95 364.386 1613.42 367.63C1620.89 370.873 1626.94 375.149 1631.56 380.457C1636.27 385.666 1639.67 391.564 1641.73 398.149C1643.89 404.637 1644.97 411.124 1644.97 417.611C1644.97 425.573 1643.55 432.797 1640.7 439.285C1637.85 445.674 1633.96 451.129 1629.05 455.65C1624.14 460.172 1618.43 463.661 1611.95 466.118C1605.46 468.477 1598.58 469.657 1591.31 469.657H1559.16V362.764ZM1588.95 454.323C1594.65 454.323 1599.91 453.488 1604.72 451.817C1609.64 450.146 1613.86 447.738 1617.4 444.592C1621.04 441.349 1623.84 437.417 1625.81 432.797C1627.87 428.079 1628.9 422.673 1628.9 416.579C1628.9 410.092 1627.77 404.44 1625.51 399.624C1623.25 394.807 1620.3 390.827 1616.67 387.681C1613.03 384.438 1608.9 382.079 1604.28 380.604C1599.76 379.031 1595.14 378.245 1590.42 378.245H1575.23V454.323H1588.95Z" fill="#EAEAEA"/>
<path d="M1663.98 469.657V362.764H1734.16V377.361H1680.2V408.617H1728.27V423.509H1680.2V454.766H1736.23V469.657H1663.98Z" fill="#EAEAEA"/>
<path d="M1758.08 362.764C1758.76 364.435 1759.9 367.187 1761.47 371.021C1763.04 374.756 1764.81 379.031 1766.78 383.848C1768.84 388.664 1770.95 393.775 1773.12 399.181C1775.38 404.587 1777.49 409.699 1779.46 414.515C1781.42 419.331 1783.19 423.656 1784.76 427.49C1786.34 431.225 1787.47 433.928 1788.15 435.599C1788.25 435.795 1788.5 436.483 1788.89 437.663C1789.28 438.842 1789.58 439.874 1789.78 440.759L1791.25 435.599C1791.94 433.928 1793.07 431.225 1794.64 427.49C1796.21 423.656 1797.98 419.331 1799.95 414.515C1801.92 409.699 1803.98 404.587 1806.14 399.181C1808.4 393.775 1810.52 388.664 1812.48 383.848C1814.55 379.031 1816.36 374.756 1817.94 371.021C1819.51 367.187 1820.64 364.435 1821.33 362.764H1837.25C1836.66 364.14 1835.58 366.647 1834.01 370.283C1832.53 373.822 1830.71 378.147 1828.55 383.258C1826.39 388.369 1823.98 393.972 1821.33 400.066C1818.77 406.16 1816.12 412.353 1813.37 418.643C1810.71 424.934 1808.06 431.126 1805.4 437.22C1802.85 443.315 1800.49 448.917 1798.33 454.028C1796.26 459.14 1794.44 463.514 1792.87 467.15C1791.4 470.689 1790.37 473.146 1789.78 474.522L1742.15 362.764H1758.08Z" fill="#EAEAEA"/>
<path d="M1850.73 469.657V362.764H1920.91V377.361H1866.95V408.617H1915.01V423.509H1866.95V454.766H1922.97V469.657H1850.73Z" fill="#EAEAEA"/>
<path d="M1941.73 469.657V362.764H1957.94V454.323H2011.02V469.657H1941.73Z" fill="#EAEAEA"/>
<path d="M2015.27 416.284C2015.27 408.912 2016.69 401.934 2019.54 395.348C2022.4 388.664 2026.28 382.816 2031.19 377.803C2036.21 372.79 2042 368.858 2048.59 366.008C2055.18 363.059 2062.25 361.585 2069.82 361.585C2077.29 361.585 2084.32 363.059 2090.9 366.008C2097.59 368.858 2103.39 372.79 2108.3 377.803C2113.32 382.816 2117.25 388.664 2120.1 395.348C2123.05 401.934 2124.52 408.912 2124.52 416.284C2124.52 423.853 2123.05 430.93 2120.1 437.515C2117.25 444.101 2113.32 449.9 2108.3 454.913C2103.39 459.828 2097.59 463.71 2090.9 466.561C2084.32 469.411 2077.29 470.836 2069.82 470.836C2062.25 470.836 2055.18 469.411 2048.59 466.561C2042 463.71 2036.21 459.828 2031.19 454.913C2026.28 449.9 2022.4 444.101 2019.54 437.515C2016.69 430.93 2015.27 423.853 2015.27 416.284ZM2031.34 416.432C2031.34 421.838 2032.32 426.949 2034.29 431.765C2036.35 436.483 2039.15 440.612 2042.69 444.15C2046.23 447.689 2050.36 450.49 2055.08 452.554C2059.8 454.618 2064.81 455.65 2070.12 455.65C2075.42 455.65 2080.39 454.618 2085.01 452.554C2089.73 450.49 2093.8 447.689 2097.24 444.15C2100.78 440.612 2103.54 436.483 2105.5 431.765C2107.57 426.949 2108.6 421.789 2108.6 416.284C2108.6 410.878 2107.57 405.816 2105.5 401.098C2103.54 396.282 2100.78 392.104 2097.24 388.566C2093.71 385.027 2089.58 382.226 2084.86 380.162C2080.24 378.098 2075.28 377.066 2069.97 377.066C2064.66 377.066 2059.65 378.098 2054.93 380.162C2050.21 382.226 2046.08 385.027 2042.54 388.566C2039.1 392.104 2036.35 396.282 2034.29 401.098C2032.32 405.914 2031.34 411.026 2031.34 416.432Z" fill="#EAEAEA"/>
<path d="M2159.52 416.284H2174.12C2178.05 416.284 2181.34 415.596 2183.99 414.22C2186.65 412.844 2188.71 411.173 2190.19 409.207C2191.76 407.241 2192.84 405.128 2193.43 402.867C2194.12 400.607 2194.46 398.592 2194.46 396.822C2194.46 394.955 2194.12 392.94 2193.43 390.777C2192.84 388.517 2191.76 386.453 2190.19 384.585C2188.61 382.619 2186.5 380.997 2183.85 379.72C2181.29 378.442 2178.1 377.803 2174.26 377.803H2159.52V416.284ZM2143.3 469.657V362.764H2172.49C2178.1 362.764 2183.21 363.501 2187.83 364.976C2192.55 366.45 2196.58 368.662 2199.92 371.61C2203.36 374.461 2206.01 377.999 2207.88 382.226C2209.75 386.354 2210.68 391.121 2210.68 396.527C2210.68 400.754 2210.04 404.981 2208.76 409.207C2207.49 413.335 2205.42 417.071 2202.57 420.412C2199.72 423.656 2195.99 426.31 2191.37 428.374C2186.75 430.438 2181.14 431.47 2174.56 431.47H2159.52V469.657H2143.3Z" fill="#EAEAEA"/>
<path d="M2228.4 469.657V362.764H2298.58V377.361H2244.61V408.617H2292.68V423.509H2244.61V454.766H2300.64V469.657H2228.4Z" fill="#EAEAEA"/>
<path d="M2319.39 469.657V362.764H2348.59C2354.19 362.764 2359.3 363.501 2363.92 364.976C2368.64 366.45 2372.67 368.662 2376.01 371.61C2379.45 374.461 2382.1 377.999 2383.97 382.226C2385.84 386.354 2386.77 391.121 2386.77 396.527C2386.77 399.476 2386.48 402.425 2385.89 405.374C2385.3 408.224 2384.31 411.026 2382.94 413.778C2381.66 416.432 2379.99 418.938 2377.93 421.297C2375.86 423.558 2373.35 425.475 2370.41 427.047C2374.34 433.24 2378.61 440.12 2383.23 447.689C2387.85 455.159 2392.52 462.481 2397.24 469.657H2377.93C2375.96 466.61 2373.9 463.415 2371.73 460.073C2369.67 456.731 2367.56 453.439 2365.39 450.195C2363.33 446.853 2361.26 443.609 2359.2 440.464C2357.23 437.22 2355.37 434.223 2353.6 431.47H2335.61V469.657H2319.39ZM2335.61 416.284H2350.21C2354.14 416.284 2357.43 415.645 2360.09 414.367C2362.74 412.991 2364.8 411.32 2366.28 409.355C2367.85 407.389 2368.93 405.275 2369.52 403.015C2370.21 400.754 2370.55 398.69 2370.55 396.822C2370.55 394.955 2370.21 392.94 2369.52 390.777C2368.93 388.517 2367.85 386.453 2366.28 384.585C2364.71 382.619 2362.59 380.997 2359.94 379.72C2357.38 378.442 2354.19 377.803 2350.35 377.803H2335.61V416.284Z" fill="#EAEAEA"/>
<g filter="url(#filter0_i)">
<path d="M262.441 142.691L164.75 45L45 164.75L284.5 404.25L164.75 524L45 404.25M262.441 186.809L404.25 45L524 164.75L404.25 284.5L524 404.25L404.25 524L306.559 426.309" stroke="#8E3BDC" stroke-width="63"/>
</g>
<defs>
<filter id="filter0_i" x="0.452271" y="0.452271" width="568.095" height="572.095" filterUnits="userSpaceOnUse" color-interpolation-filters="sRGB">
<feFlood flood-opacity="0" result="BackgroundImageFix"/>
<feBlend mode="normal" in="SourceGraphic" in2="BackgroundImageFix" result="shape"/>
<feColorMatrix in="SourceAlpha" type="matrix" values="0 0 0 0 0 0 0 0 0 0 0 0 0 0 0 0 0 0 127 0" result="hardAlpha"/>
<feOffset dy="4"/>
<feGaussianBlur stdDeviation="19"/>
<feComposite in2="hardAlpha" operator="arithmetic" k2="-1" k3="1"/>
<feColorMatrix type="matrix" values="0 0 0 0 0 0 0 0 0 0 0 0 0 0 0 0 0 0 0.25 0"/>
<feBlend mode="normal" in2="shape" result="effect1_innerShadow"/>
</filter>
</defs>
</svg>
